<?xml version="1.0" encoding="utf-8"?>
<svg viewBox="-6 106 515 340" xmlns="http://www.w3.org/2000/svg" xmlns:bx="https://boxy-svg.com">
  <defs>
    <style type="text/css">
   /* <![CDATA[ */
     text {
     	font-size: 14px;
     	white-space: pre;
     	font-family: "Liberation Sans";
     	}
     	 /* ]]> */
     svg text {display: none;}
     svg g:hover text {display: block;}
   </style>
  </defs>
  <path d="M 58.538 100.66 Z" style="stroke: black; fill: none;"/>
  <path d="M 87.78 268.45 Z" style="stroke: black; fill: none;"/>
  <path d="M 75.944 228.069 Z" style="stroke: black; fill: none;"/>
  <path d="M 2.062 209.638 L 142.258 248.873 L 333.707 338.693 C 333.707 338.693 360.169 325.598 387.631 325.45 C 415.479 325.299 439.544 337.985 439.544 337.985 L 498.058 321.951 L 437.474 302.636 C 437.474 302.636 431.526 300.462 414.583 292.203 C 387.042 278.781 384.211 259.606 347.097 242.502 C 336.719 237.72 314.395 231.619 314.395 231.619 L 125.192 176.368 L 2.062 209.638 Z" style="stroke: black; fill: rgb(147, 218, 85); stroke-linejoin: bevel;"/>
  <path d="M 334.918 339.21 C 334.918 339.21 362.869 324.794 388.972 325.288 C 416.673 325.812 439.59 337.484 439.59 337.484 C 439.59 337.484 422.254 344.654 417.132 350.332 C 402.921 366.091 405.357 398.515 385.888 397.376 C 368.742 396.374 373.859 369.168 358.032 354.033 C 351.614 347.893 334.918 339.21 334.918 339.21 Z" style="stroke: black; fill: rgb(175, 148, 66);"/>
  <path d="M 147.875 249.902 C 147.875 249.902 209.635 217.192 261.71 237.58 C 313.575 257.885 297.741 309.215 297.741 309.215 C 297.741 309.215 267.855 259.561 227.413 248.919 C 197.568 241.066 147.875 249.902 147.875 249.902 Z" style="stroke: black; fill: rgb(160, 187, 70);"/>
  <path d="M 2.347 209.892 L 148.221 250.36 C 148.221 250.36 197.332 240.733 220.85 246.608 C 262.269 256.955 290.671 296.789 290.671 296.789 C 290.671 296.789 304.609 322.469 312.731 330.876 C 316.754 335.04 335.207 340.218 335.207 340.218 C 335.207 340.218 352.36 346.284 361.752 355.9 C 381.697 376.319 396.53 371.278 416.533 349.522 C 425.003 340.307 436.132 338.608 436.132 338.608 L 498.107 322.025 L 498.016 396.362 L 383.849 434.269 L 2.576 323.542 L 2.347 209.892 Z" style="stroke: black; fill: rgb(218, 185, 85);"/>
  <path d="M 314.291 299.469 L 313.736 319.086 L 297.485 325.57 L 298.319 306.421 L 314.291 299.469 Z" style="stroke: black; fill: rgb(208, 87, 1);"/>
  <path d="M 349.297 311.35 L 349.495 330.215 L 309.203 297.95 L 349.297 311.35 Z" style="stroke: black; fill: rgb(208, 87, 1);"/>
  <path d="M 298.12 317.287 L 312.836 311.62 L 347.121 323.888 L 339.339 326.604 L 330.73 327.157 L 298.12 317.287 Z" style="stroke: black; fill: rgb(187, 113, 16);"/>
  <path d="M 330.524 342.627 L 331.354 317.924 L 335.653 319.841 L 334.349 348.101 L 317.906 342.451 L 315.165 386.472 L 138.684 335.958 L 139.133 281.609 L 143.346 282.398 L 143.097 333.122 L 311.18 381.043 L 314.378 337.403 L 330.524 342.627 Z" style="stroke: black; fill: rgb(208, 87, 1);"/>
  <path d="M 351.77 312.399 L 351.215 332.018 L 334.965 338.501 L 335.799 319.352 L 339.702 317.653 L 339.886 328.183 L 346.59 324.871 L 346.843 314.544 L 351.77 312.399 Z" style="stroke: black; fill: rgb(208, 87, 1);"/>
  <path d="M 294.789 302.434 L 309.15 295.305 L 351.565 308.15 L 336.113 315.292 L 294.789 302.434 Z" style="stroke: black; fill: rgb(146, 146, 146); stroke-linejoin: bevel;"/>
  <path d="M 293.312 324.156 L 294.466 304.269 L 298.765 305.35 L 297.106 330.43 L 293.312 324.156 Z" style="stroke: black; fill: rgb(208, 87, 1);"/>
  <path d="M 294.402 302.557 L 335.657 315.192 L 351.845 308.154 L 351.845 312.025 L 335.657 319.766 L 294.048 306.963 L 294.402 302.557 Z" style="stroke: black; fill: rgb(146, 146, 146); stroke-linejoin: bevel;"/>
  <path d="M 335.305 315.192 L 335.305 319.415" style="fill: none; stroke: black;"/>
  <path d="M 143.671 289.792 C 143.671 289.792 187.536 265.63 230.226 280.85 C 265.294 293.354 282.475 329.06 282.475 329.06 L 143.671 289.792 Z" style="stroke: black; fill: rgb(187, 113, 16);"/>
  <path d="M 340.004 327.552 L 346.803 324.628 L 349.435 333.948 C 349.435 333.948 356.526 339.555 360.798 340.389 C 364.415 341.096 368.094 339.339 371.757 338.96 C 378.715 338.242 385.311 337.461 392.268 338.178 C 401.993 339.182 420.845 345.526 420.845 345.526 C 420.845 345.526 414.469 348.923 407.543 362.312 C 401.167 374.637 395.228 390.405 383.202 389.838 C 373.003 389.356 371.39 374.688 366.622 364.729 C 360.73 352.429 351.062 347.583 351.062 347.583 C 351.062 347.583 355.786 345.591 352.934 342.983 C 349.393 339.746 343.407 336.208 343.407 336.208 L 340.004 327.552 Z" style="stroke: black; fill: rgb(125, 75, 11); stroke-linejoin: bevel;"/>
  <path d="M 420.6 345.736 L 382.053 357.139 L 350.819 347.471" style="fill: none; stroke: black; stroke-linecap: round;"/>
  <path d="M 362.545 357.22 L 382.463 364.038 L 411.026 355.237 L 406.712 362.924 L 382.435 371.48 L 367.585 366.05 L 362.545 357.22 Z" style="stroke: black; fill: rgb(187, 113, 16);"/>
  <path d="M 370.297 374.013 L 382.747 378.491 L 402.763 371.771 L 397.633 380.795 L 383.24 385.672 L 373.194 381.542 L 370.297 374.013 Z" style="stroke: black; fill: rgb(187, 113, 16);"/>
  <path d="M 384.166 434.512 L 381.97 357.312" style="fill: none; stroke: black;" bx:origin="0 0.5"/>
  <path d="M 114.187 155.219 L 153.115 168.624 L 152.718 241.645 L 113.551 231.011 L 114.187 155.219 Z M 130.975 171.205 C 127.797 171.205 125.221 175.179 125.221 180.081 C 125.221 184.984 127.797 188.958 130.975 188.958 C 134.152 188.958 136.728 184.984 136.728 180.081 C 136.728 175.179 134.152 171.205 130.975 171.205 Z" style="stroke: black; fill: rgb(208, 87, 1);"/>
  <path d="M 137.97 254.303 L 138.421 165.164 L 134.341 162.888 L 134.206 253.064 L 137.97 254.303 Z" style="stroke: black; fill: rgb(208, 87, 1);"/>
  <path d="M 137.914 247.527 L 153.411 242.415 L 153.986 164.539 L 137.914 169.578 L 137.914 247.527 Z" style="stroke: black; fill: rgb(208, 87, 1);"/>
  <path d="M 106.972 239.295 C 106.972 239.295 117.132 236.336 123.558 238.285 C 130.881 240.506 130.248 245.704 130.248 245.704 C 130.248 245.704 123.963 247.048 124.352 249.32 C 128.276 272.216 126.355 263.009 126.355 263.009 L 121.803 259.31 C 121.803 259.31 125.301 269.791 115.512 245.086 C 114.244 241.888 106.972 239.295 106.972 239.295 Z" style="stroke: black; fill: rgb(144, 144, 144);"/>
  <path d="M 44.785 221.991 C 44.785 221.991 54.945 219.031 61.371 220.98 C 68.694 223.202 68.061 228.399 68.061 228.399 C 68.061 228.399 62.771 229.791 62.165 232.015 C 60.645 237.601 70.323 247.346 70.323 247.346 C 70.323 247.346 56.701 236.607 50.863 230.243 C 48.553 227.726 44.785 221.991 44.785 221.991 Z" style="stroke: black; fill: rgb(144, 144, 144);"/>
  <path d="M 142.894 289.357 L 279.194 328.468 L 296.749 332.327 L 298.042 317.205 L 330.804 326.985 L 330.447 342.813 L 314.178 337.266 L 311.175 381.376 L 142.358 333.075 L 142.895 327.033 L 55.187 234.248 L 63.002 236.763 L 142.376 319.156 L 142.758 316.135 L 119.083 253.601 L 124.934 255.107 L 143.011 305.889 L 142.894 289.357 Z" style="stroke: black; fill: rgb(125, 75, 11);"/>
  <path d="M 142.36 289.912 C 139.717 293.433 182.425 257.183 217.983 268.311 C 261.22 281.843 283.597 335.691 283.597 335.691 L 296.629 331.993 C 296.629 331.993 268.765 269.482 219.822 257.018 C 181.153 247.171 137.306 280.286 137.306 280.286 L 142.36 289.912 Z" style="stroke: black; fill: rgb(181, 181, 181);"/>
  <path d="M 143.857 289.833 C 143.857 289.833 187.796 272.182 216.211 278.743 C 266.024 290.246 280.088 329.635 280.088 329.635 C 280.088 329.635 262.118 285.845 225.891 270.203 L 226.06 248.258 C 226.06 248.258 226.186 246.09 224.388 245.215 C 222.162 244.132 219.966 246.417 219.966 246.417 L 219.68 268.365 C 185.728 256.145 143.857 289.833 143.857 289.833 Z" style="stroke: black; fill: rgb(136, 136, 136);"/>
  <path d="M 97.285 242.671 L 97.7 145.016 L 93.939 142.523 L 93.812 241.401 L 97.285 242.671 Z" style="stroke: black; fill: rgb(208, 87, 1);"/>
  <path d="M 97.512 236.792 L 114.158 231.457 L 114.92 142.94 L 97.512 148.42 L 97.512 236.792 Z" style="stroke: black; fill: rgb(208, 87, 1);"/>
  <path d="M 162.089 167.43 L 104.774 135.827 L 102.84 137.988 L 98.37 136.127 L 96.517 139.428 L 92.147 138.148 L 90.332 141.689 L 84.955 141.184 L 141.198 172.787 L 145.557 173.74 L 148.363 169.933 L 152.148 171.787 L 154.237 168.293 L 158.015 170.509 L 162.089 167.43 Z" style="stroke: black; fill: rgb(136, 136, 136);"/>
  <path d="M 76.434 230.407 L 76.85 195.528 C 76.85 195.528 78.282 187.354 67.608 183.279 C 51.051 176.959 37.453 187.732 37.453 187.732 L 37.863 218.917 C 37.863 218.917 50.953 211.359 65.356 217.277 C 76.596 221.895 76.434 230.407 76.434 230.407 Z" style="stroke: black; fill: rgb(181, 181, 181);"/>
  <path d="M 80.253 237.491 L 80.958 203.336 L 76.57 201.799 L 76.134 236.093 L 80.253 237.491 Z" style="stroke: black; fill: rgb(144, 144, 144);"/>
  <path d="M 37.703 225.927 L 37.624 190.757 L 33.374 189.221 L 33.584 224.548 L 37.703 225.927 Z" style="stroke: black; fill: rgb(144, 144, 144);"/>
  <path d="M 33.324 186.258 L 53.104 191.599 L 57.276 190.339 L 40.361 186.055 C 45.468 184.154 56.806 180.835 66.712 184.261 C 74.36 186.906 77.05 191.8 77.081 195.895 L 57.763 190.567 L 58.85 193.484 L 80.958 199.669 C 80.958 199.669 84.54 186.4 69.175 181.389 C 50.661 175.352 33.324 186.258 33.324 186.258 Z" style="stroke: black; fill: rgb(144, 144, 144); stroke-linejoin: bevel;"/>
  <path d="M 32.989 186.48 L 33.128 189.248 L 53.609 194.922 L 53.193 191.601 L 32.989 186.48 Z" style="stroke: black; fill: rgb(144, 144, 144); stroke-linejoin: bevel;"/>
  <path d="M 58.868 193.676 L 58.729 196.721 L 80.993 203.241 L 81.117 199.627 L 58.868 193.676 Z" style="stroke: black; fill: rgb(144, 144, 144);"/>
  <path d="M 56.238 219.278 L 46.966 212.913 C 46.966 212.913 44.951 213.085 44.15 213.365 C 43.481 213.6 41.985 214.85 41.985 214.85 L 56.238 219.278 Z" style="stroke: black; fill: rgb(144, 144, 144);"/>
  <path d="M 55.962 219.555 L 71.461 217.341 C 71.461 217.341 72.819 217.695 73.49 218.281 C 74.11 218.823 74.782 220.385 74.782 220.385 L 55.962 219.555 Z" style="stroke: black; fill: rgb(144, 144, 144);"/>
  <path d="M 54.819 222.375 L 54.819 189.715 L 74.229 185.289 L 73.889 178.818 L 76.954 179.84 L 76.613 186.991 L 57.202 191.419 L 57.277 223.13 L 54.819 222.375 Z" style="stroke: black; fill: rgb(144, 144, 144);"/>
  <path d="M 144.929 172.864 L 90.512 142.019" style="fill: none; stroke: rgb(91, 91, 91);"/>
  <path d="M 151.622 170.531 L 97.205 139.686" style="fill: none; stroke: rgb(91, 91, 91);"/>
  <path d="M 157.367 169.252 L 102.951 138.407" style="fill: none; stroke: rgb(91, 91, 91);"/>
  <path d="M 220.694 273.66 C 222.295 273.66 220.074 240.633 222.295 238.426 C 225.894 234.85 243.649 238.96 243.649 238.96 L 243.649 242.964 C 243.649 242.964 229.066 239.057 226.299 241.629 C 223.53 244.203 224.698 274.729 224.698 274.729 L 220.694 273.66 Z" style="stroke: black; fill: rgb(181, 181, 181);"/>
  <ellipse cx="233.838" cy="236.597" rx="3.87" ry="2.135" style="stroke: rgb(0, 0, 0); fill: rgb(208, 87, 1);"/>
  <path d="M 233.545 241.363 L 233.545 238.96" style="fill: none; stroke: black;"/>
  <path d="M 220.583 247.049 L 220.425 267.849" style="fill: none; stroke: rgb(208, 87, 1); stroke-linecap: round;"/>
  <path d="M 225.346 247.446 L 225.03 269.834" style="fill: none; stroke: rgb(208, 87, 1); stroke-linecap: round;"/>
  <path d="M 447.041 231.453 C 447.041 231.453 442.604 256.701 442.859 269.436 C 443.155 284.234 444.654 299.351 449.479 313.344 C 450.479 316.245 454.009 321.359 454.009 321.359 C 454.009 321.359 445.015 312.323 441.116 315.086 C 438.636 316.844 438.677 323.449 438.677 323.449 C 438.677 323.449 433.978 315.699 427.526 315.086 C 422.405 314.6 412.541 319.268 412.541 319.268 C 412.541 319.268 420.334 312.633 422.299 307.071 C 426.233 295.931 426.56 280.895 426.132 269.087 C 425.644 255.61 418.466 229.362 418.466 229.362 L 447.041 231.453 Z" style="stroke: black; fill: rgb(125, 75, 11);"/>
  <path d="M 389.182 159.844 C 389.182 159.844 382.209 145.562 403.826 133.558 C 419.409 124.906 436.829 141.567 436.829 141.567 C 436.829 141.567 450.831 132.261 467.978 143.02 C 483.109 152.514 480.56 166.369 480.56 166.369 C 480.56 166.369 501.658 174.079 492.961 197.7 C 484.68 220.192 462.284 217.935 462.284 217.935 C 462.284 217.935 460.572 238.555 438.134 240.126 C 408.963 242.167 403.542 215.976 403.542 215.976 C 403.542 215.976 381.669 219.537 375.475 190.52 C 371.279 170.869 389.182 159.844 389.182 159.844 Z" style="stroke: black; fill: rgb(95, 148, 48);"/>
  <path d="M 186.302 293.912 C 186.302 293.912 189.128 294.937 191.914 294.954 C 194.788 294.971 197.802 294.508 197.802 294.508 C 197.802 294.508 197.803 289.81 191.879 289.531 C 186.261 289.267 186.302 293.912 186.302 293.912 Z" style="stroke: black; fill: rgb(125, 75, 11);"/>
  <path d="M 232.088 296.227 C 232.088 296.227 234.914 297.252 237.7 297.269 C 240.574 297.286 243.588 296.823 243.588 296.823 C 243.588 296.823 243.589 292.125 237.665 291.846 C 232.047 291.582 232.088 296.227 232.088 296.227 Z" style="stroke: black; fill: rgb(125, 75, 11);"/>
  <path d="M 246.197 316.064 C 246.197 316.064 249.023 317.089 251.81 317.105 C 254.684 317.123 257.698 316.659 257.698 316.659 C 257.698 316.659 257.699 311.961 251.775 311.683 C 246.156 311.418 246.197 316.064 246.197 316.064 Z" style="stroke: black; fill: rgb(125, 75, 11);"/>
  <path d="M 203.662 287.434 C 203.662 287.434 206.488 288.459 209.274 288.476 C 212.149 288.493 215.162 288.03 215.162 288.03 C 215.162 288.03 215.163 283.332 209.239 283.053 C 203.621 282.789 203.662 287.434 203.662 287.434 Z" style="stroke: black; fill: rgb(125, 75, 11);"/>
  <path d="M 219.594 302.651 C 219.594 302.651 221.103 303.198 222.591 303.207 C 224.126 303.216 225.735 302.969 225.735 302.969 C 225.735 302.969 225.736 300.461 222.573 300.311 C 219.572 300.171 219.594 302.651 219.594 302.651 Z" style="stroke: black; fill: rgb(125, 75, 11);"/>
  <path d="M 155.413 289.87 C 155.413 289.87 156.922 290.416 158.41 290.426 C 159.945 290.435 161.554 290.187 161.554 290.187 C 161.554 290.187 161.555 287.679 158.392 287.53 C 155.391 287.389 155.413 289.87 155.413 289.87 Z" style="stroke: black; fill: rgb(125, 75, 11);"/>
  <path d="M 181.179 283.94 C 181.179 283.94 182.688 284.487 184.177 284.496 C 185.712 284.506 187.32 284.258 187.32 284.258 C 187.32 284.258 187.321 281.75 184.158 281.601 C 181.158 281.46 181.179 283.94 181.179 283.94 Z" style="stroke: black; fill: rgb(125, 75, 11);"/>
  <path d="M 249.276 302.14 C 249.276 302.14 250.785 302.687 252.274 302.696 C 253.808 302.706 255.417 302.458 255.417 302.458 C 255.417 302.458 255.418 299.95 252.255 299.801 C 249.254 299.66 249.276 302.14 249.276 302.14 Z" style="stroke: black; fill: rgb(125, 75, 11);"/>
  <path d="M 212.464 295.533 Q 212.464 295.533 212.464 295.533 Z" style="fill: none; stroke: black;"/>
  <path d="M 210.873 295.533 L 210.873 295.533 Z" style="fill: none; stroke: black;"/>
  <path d="M 210.211 299.15 L 208.166 299.138" style="fill: none; stroke: black; stroke-linecap: round;"/>
  <path d="M 177.294 286.091 L 175.249 286.078" style="fill: none; stroke: black; stroke-linecap: round;"/>
  <path d="M 260.265 311.442 L 258.22 311.43" style="fill: none; stroke: black; stroke-linecap: round;"/>
  <path d="M 218.614 281.646 L 216.57 281.634" style="fill: none; stroke: black; stroke-linecap: round;"/>
  <path d="M 392.695 364.622 C 392.695 364.622 394.393 362.355 395.642 362.306 C 396.401 362.276 397.536 363.57 397.536 363.57" style="fill: none; stroke: black; stroke-linecap: round;"/>
  <path d="M 389.787 364.704 C 389.787 364.704 388.241 366.955 386.998 367.087 C 386.241 367.167 385.024 366.029 385.024 366.029" style="fill: none; stroke: black; stroke-linecap: round;"/>
  <path d="M 369.167 364.613 C 369.167 364.613 372.066 362.701 373.408 363.317 C 374.424 363.784 373.692 366.046 374.757 366.386 C 375.715 366.693 377.352 364.845 377.352 364.845" style="fill: none; stroke: black; stroke-linecap: round;"/>
  <path d="M 390.62 377.729 C 390.62 377.729 392.7 379.246 393.977 378.502 C 394.942 377.937 394.346 376.51 395.372 376.066 C 396.295 375.666 397.312 376.694 397.312 376.694" style="fill: none; stroke: black; stroke-linecap: round;"/>
  <path d="M 375.736 379.709 L 378.565 380.889" style="fill: none; stroke: black; stroke-linecap: round;"/>
  <path d="M 385.59 381.285 C 385.211 380.359 387.887 378.838 388.522 380.395" style="fill: none; stroke: black; stroke-linecap: round;"/>
  <path d="M 51.621 165.797 L 48.203 175.564 L 44.429 165.797 L 38.242 165.797 C 35.203 165.797 32.739 163.333 32.739 160.294 L 32.739 150.293 C 32.739 147.254 35.203 144.79 38.242 144.79 L 65.773 144.79 C 68.812 144.79 71.276 147.254 71.276 150.293 L 71.276 160.294 C 71.276 163.333 68.812 165.797 65.773 165.797 L 51.621 165.797 Z" style="stroke: black; fill: rgb(255, 255, 255);"/>
  <g>
  <text x="38.408" y="160.475">Inlet</text>
  <path d="M 144.926 127.85 L 141.508 118.083 L 137.734 127.85 L 119.282 127.85 C 116.243 127.85 113.779 130.314 113.779 133.353 L 113.779 143.354 C 113.779 146.393 116.243 148.857 119.282 148.857 L 163.083 148.857 C 166.122 148.857 168.586 146.393 168.586 143.354 L 168.586 133.353 C 168.586 130.314 166.122 127.85 163.083 127.85 L 144.926 127.85 Z" style="stroke: black; fill: rgb(255, 255, 255);" transform="matrix(-1, 0, 0, -1, 283.94001, 266.940002)"/>
  </g>
  <g>
  <text x="120.313" y="133.782">Latrine</text>
  <path d="M 381.042 392.784 L 377.624 383.017 L 373.85 392.784 L 361.584 392.784 C 358.545 392.784 356.081 395.248 356.081 398.287 L 356.081 408.288 C 356.081 411.327 358.545 413.791 361.584 413.791 L 425.025 413.996 C 428.064 413.996 430.528 411.532 430.528 408.493 L 430.528 398.492 C 430.528 395.453 428.064 392.989 425.025 392.989 L 381.042 392.784 Z" style="stroke: black; fill: rgb(255, 255, 255);"/>
  <text x="361.906" y="408.25">Bio-slurry</text>
  </g>
</svg>
