<?xml version="1.0" encoding="UTF-8" standalone="no"?>
<!-- Created with Inkscape (http://www.inkscape.org/) -->
<svg xmlns:dc="http://purl.org/dc/elements/1.1/" xmlns:cc="http://creativecommons.org/ns#" xmlns:rdf="http://www.w3.org/1999/02/22-rdf-syntax-ns#" xmlns:svg="http://www.w3.org/2000/svg" xmlns="http://www.w3.org/2000/svg" xmlns:xlink="http://www.w3.org/1999/xlink" xmlns:sodipodi="http://sodipodi.sourceforge.net/DTD/sodipodi-0.dtd" xmlns:inkscape="http://www.inkscape.org/namespaces/inkscape" width="30mm" height="30mm" viewBox="0 0 106.29921 106.29921" id="svg2" version="1.1" inkscape:version="0.91 r13725" sodipodi:docname="Quelle-lineart.svg">
  <title id="title4344">water spring - lineart</title>
  <defs id="defs4">
    <pattern inkscape:collect="always" xlink:href="#Polkadots-med" id="pattern6649" patternTransform="matrix(2.6085959,0,0,2.5403676,9.0346295e-8,946.09972)"/>
    <pattern inkscape:stockid="Polka dots, medium" id="Polkadots-med" patternTransform="translate(0,0) scale(10,10)" height="10" width="10" patternUnits="userSpaceOnUse" inkscape:collect="always">
      <circle id="circle5405" r="0.15" cy="0.810" cx="2.567" style="fill:black;stroke:none"/>
      <circle id="circle5407" r="0.15" cy="2.33" cx="3.048" style="fill:black;stroke:none"/>
      <circle id="circle5409" r="0.15" cy="2.415" cx="4.418" style="fill:black;stroke:none"/>
      <circle id="circle5411" r="0.15" cy="3.029" cx="1.844" style="fill:black;stroke:none"/>
      <circle id="circle5413" r="0.15" cy="1.363" cx="6.08" style="fill:black;stroke:none"/>
      <circle id="circle5415" r="0.15" cy="4.413" cx="5.819" style="fill:black;stroke:none"/>
      <circle id="circle5417" r="0.15" cy="4.048" cx="4.305" style="fill:black;stroke:none"/>
      <circle id="circle5419" r="0.15" cy="3.045" cx="5.541" style="fill:black;stroke:none"/>
      <circle id="circle5421" r="0.15" cy="5.527" cx="4.785" style="fill:black;stroke:none"/>
      <circle id="circle5423" r="0.15" cy="5.184" cx="2.667" style="fill:black;stroke:none"/>
      <circle id="circle5425" r="0.15" cy="1.448" cx="7.965" style="fill:black;stroke:none"/>
      <circle id="circle5427" r="0.15" cy="5.049" cx="7.047" style="fill:black;stroke:none"/>
      <circle id="circle5429" r="0.15" cy="0.895" cx="4.340" style="fill:black;stroke:none"/>
      <circle id="circle5431" r="0.15" cy="0.340" cx="7.125" style="fill:black;stroke:none"/>
      <circle id="circle5433" r="0.15" cy="1.049" cx="9.553" style="fill:black;stroke:none"/>
      <circle id="circle5435" r="0.15" cy="2.689" cx="7.006" style="fill:black;stroke:none"/>
      <circle id="circle5437" r="0.15" cy="2.689" cx="8.909" style="fill:black;stroke:none"/>
      <circle id="circle5439" r="0.15" cy="4.407" cx="9.315" style="fill:black;stroke:none"/>
      <circle id="circle5441" r="0.15" cy="3.870" cx="7.820" style="fill:black;stroke:none"/>
      <circle id="circle5443" r="0.15" cy="5.948" cx="8.270" style="fill:black;stroke:none"/>
      <circle id="circle5445" r="0.15" cy="7.428" cx="7.973" style="fill:black;stroke:none"/>
      <circle id="circle5447" r="0.15" cy="8.072" cx="9.342" style="fill:black;stroke:none"/>
      <circle id="circle5449" r="0.15" cy="9.315" cx="8.206" style="fill:black;stroke:none"/>
      <circle id="circle5451" r="0.15" cy="9.475" cx="9.682" style="fill:black;stroke:none"/>
      <circle id="circle5453" r="0.15" cy="6.186" cx="9.688" style="fill:black;stroke:none"/>
      <circle id="circle5455" r="0.15" cy="6.296" cx="3.379" style="fill:black;stroke:none"/>
      <circle id="circle5457" r="0.15" cy="8.204" cx="2.871" style="fill:black;stroke:none"/>
      <circle id="circle5459" r="0.15" cy="8.719" cx="4.59" style="fill:black;stroke:none"/>
      <circle id="circle5461" r="0.15" cy="9.671" cx="3.181" style="fill:black;stroke:none"/>
      <circle id="circle5463" r="0.15" cy="7.315" cx="5.734" style="fill:black;stroke:none"/>
      <circle id="circle5465" r="0.15" cy="6.513" cx="6.707" style="fill:black;stroke:none"/>
      <circle id="circle5467" r="0.15" cy="9.670" cx="5.730" style="fill:black;stroke:none"/>
      <circle id="circle5469" r="0.15" cy="8.373" cx="6.535" style="fill:black;stroke:none"/>
      <circle id="circle5471" r="0.15" cy="7.154" cx="4.37" style="fill:black;stroke:none"/>
      <circle id="circle5473" r="0.15" cy="7.25" cx="0.622" style="fill:black;stroke:none"/>
      <circle id="circle5475" r="0.15" cy="5.679" cx="0.831" style="fill:black;stroke:none"/>
      <circle id="circle5477" r="0.15" cy="8.519" cx="1.257" style="fill:black;stroke:none"/>
      <circle id="circle5479" r="0.15" cy="6.877" cx="1.989" style="fill:black;stroke:none"/>
      <circle id="circle5481" r="0.15" cy="3.181" cx="0.374" style="fill:black;stroke:none"/>
      <circle id="circle5483" r="0.15" cy="1.664" cx="1.166" style="fill:black;stroke:none"/>
      <circle id="circle5485" r="0.15" cy="0.093" cx="1.151" style="fill:black;stroke:none"/>
      <circle id="circle5487" r="0.15" cy="10.093" cx="1.151" style="fill:black;stroke:none"/>
      <circle id="circle5489" r="0.15" cy="4.451" cx="1.302" style="fill:black;stroke:none"/>
      <circle id="circle5491" r="0.15" cy="3.763" cx="3.047" style="fill:black;stroke:none"/>
    </pattern>
    <pattern inkscape:collect="always" xlink:href="#Polkadots-large" id="pattern6410" patternTransform="matrix(1.1985434,0,0,1.244029,0.22742782,946.34355)"/>
    <pattern inkscape:collect="always" xlink:href="#Polkadots-large" id="pattern6316" patternTransform="matrix(1.2516231,0,0,1.1872968,0.32163152,947.12438)"/>
    <pattern inkscape:collect="always" xlink:href="#Polkadots-large" id="pattern6222" patternTransform="matrix(0.99385838,0,0,1.1985434,0.25420748,946.34355)"/>
    <pattern inkscape:collect="always" xlink:href="#Polkadots-large" id="pattern6128" patternTransform="matrix(1.1712152,0,0,1.1068889,0,946.07907)"/>
    <pattern inkscape:collect="always" xlink:href="#Polkadots-large" id="pattern6034" patternTransform="matrix(1.1229705,0,0,1.1229705,0.96489452,946.75696)"/>
    <pattern inkscape:collect="always" xlink:href="#Polkadots-large" id="pattern5940" patternTransform="matrix(1.125,0,0,0.87499999,0.74999998,946.5)"/>
    <pattern inkscape:isstock="true" inkscape:stockid="Polka dots, large" id="Polkadots-large" patternTransform="translate(0,0) scale(10,10)" height="10" width="10" patternUnits="userSpaceOnUse" inkscape:collect="always">
      <circle id="circle5583" r="0.45" cy="0.810" cx="2.567" style="fill:black;stroke:none"/>
      <circle id="circle5585" r="0.45" cy="2.33" cx="3.048" style="fill:black;stroke:none"/>
      <circle id="circle5587" r="0.45" cy="2.415" cx="4.418" style="fill:black;stroke:none"/>
      <circle id="circle5589" r="0.45" cy="3.029" cx="1.844" style="fill:black;stroke:none"/>
      <circle id="circle5591" r="0.45" cy="1.363" cx="6.08" style="fill:black;stroke:none"/>
      <circle id="circle5593" r="0.45" cy="4.413" cx="5.819" style="fill:black;stroke:none"/>
      <circle id="circle5595" r="0.45" cy="4.048" cx="4.305" style="fill:black;stroke:none"/>
      <circle id="circle5597" r="0.45" cy="3.045" cx="5.541" style="fill:black;stroke:none"/>
      <circle id="circle5599" r="0.45" cy="5.527" cx="4.785" style="fill:black;stroke:none"/>
      <circle id="circle5601" r="0.45" cy="5.184" cx="2.667" style="fill:black;stroke:none"/>
      <circle id="circle5603" r="0.45" cy="1.448" cx="7.965" style="fill:black;stroke:none"/>
      <circle id="circle5605" r="0.45" cy="5.049" cx="7.047" style="fill:black;stroke:none"/>
      <circle id="circle5607" r="0.45" cy="0.895" cx="4.340" style="fill:black;stroke:none"/>
      <circle id="circle5609" r="0.45" cy="0.340" cx="7.125" style="fill:black;stroke:none"/>
      <circle id="circle5611" r="0.45" cy="1.049" cx="9.553" style="fill:black;stroke:none"/>
      <circle id="circle5613" r="0.45" cy="2.689" cx="7.006" style="fill:black;stroke:none"/>
      <circle id="circle5615" r="0.45" cy="2.689" cx="8.909" style="fill:black;stroke:none"/>
      <circle id="circle5617" r="0.45" cy="4.407" cx="9.315" style="fill:black;stroke:none"/>
      <circle id="circle5619" r="0.45" cy="3.870" cx="7.820" style="fill:black;stroke:none"/>
      <circle id="circle5621" r="0.45" cy="5.948" cx="8.270" style="fill:black;stroke:none"/>
      <circle id="circle5623" r="0.45" cy="7.428" cx="7.973" style="fill:black;stroke:none"/>
      <circle id="circle5625" r="0.45" cy="8.072" cx="9.342" style="fill:black;stroke:none"/>
      <circle id="circle5627" r="0.45" cy="9.315" cx="8.206" style="fill:black;stroke:none"/>
      <circle id="circle5629" r="0.45" cy="9.475" cx="9.682" style="fill:black;stroke:none"/>
      <circle id="circle5631" r="0.45" cy="6.186" cx="9.688" style="fill:black;stroke:none"/>
      <circle id="circle5633" r="0.45" cy="6.296" cx="3.379" style="fill:black;stroke:none"/>
      <circle id="circle5635" r="0.45" cy="8.204" cx="2.871" style="fill:black;stroke:none"/>
      <circle id="circle5637" r="0.45" cy="8.719" cx="4.59" style="fill:black;stroke:none"/>
      <circle id="circle5639" r="0.45" cy="9.671" cx="3.181" style="fill:black;stroke:none"/>
      <circle id="circle5641" r="0.45" cy="7.315" cx="5.734" style="fill:black;stroke:none"/>
      <circle id="circle5643" r="0.45" cy="6.513" cx="6.707" style="fill:black;stroke:none"/>
      <circle id="circle5645" r="0.45" cy="9.670" cx="5.730" style="fill:black;stroke:none"/>
      <circle id="circle5647" r="0.45" cy="8.373" cx="6.535" style="fill:black;stroke:none"/>
      <circle id="circle5649" r="0.45" cy="7.154" cx="4.37" style="fill:black;stroke:none"/>
      <circle id="circle5651" r="0.45" cy="7.25" cx="0.622" style="fill:black;stroke:none"/>
      <circle id="circle5653" r="0.45" cy="5.679" cx="0.831" style="fill:black;stroke:none"/>
      <circle id="circle5655" r="0.45" cy="8.519" cx="1.257" style="fill:black;stroke:none"/>
      <circle id="circle5657" r="0.45" cy="6.877" cx="1.989" style="fill:black;stroke:none"/>
      <circle id="circle5659" r="0.45" cy="3.181" cx="0.374" style="fill:black;stroke:none"/>
      <circle id="circle5661" r="0.45" cy="1.664" cx="1.166" style="fill:black;stroke:none"/>
      <circle id="circle5663" r="0.45" cy="0.093" cx="1.151" style="fill:black;stroke:none"/>
      <circle id="circle5665" r="0.45" cy="10.093" cx="1.151" style="fill:black;stroke:none"/>
      <circle id="circle5667" r="0.45" cy="4.451" cx="1.302" style="fill:black;stroke:none"/>
      <circle id="circle5669" r="0.45" cy="3.763" cx="3.047" style="fill:black;stroke:none"/>
    </pattern>
  </defs>
  <sodipodi:namedview id="base" pagecolor="#ffffff" bordercolor="#666666" borderopacity="1.0" inkscape:pageopacity="0.0" inkscape:pageshadow="2" inkscape:zoom="1" inkscape:cx="83.883994" inkscape:cy="40.530577" inkscape:document-units="mm" inkscape:current-layer="layer1" showgrid="false" inkscape:window-width="1612" inkscape:window-height="985" inkscape:window-x="421" inkscape:window-y="178" inkscape:window-maximized="0" inkscape:snap-global="false" showguides="false"/>
  <metadata id="metadata7">
    <rdf:RDF>
      <cc:Work rdf:about="">
        <dc:format>image/svg+xml</dc:format>
        <dc:type rdf:resource="http://purl.org/dc/dcmitype/StillImage"/>
        <dc:title>water spring - lineart</dc:title>
        <cc:license rdf:resource="http://creativecommons.org/publicdomain/zero/1.0/"/>
        <dc:subject>
          <rdf:Bag>
            <rdf:li>Water spring</rdf:li>
            <rdf:li>fountain</rdf:li>
            <rdf:li>water source</rdf:li>
            <rdf:li>water</rdf:li>
            <rdf:li>school</rdf:li>
            <rdf:li>teaching</rdf:li>
            <rdf:li>education</rdf:li>
            <rdf:li>Wasserquelle</rdf:li>
            <rdf:li>Springbrunnen</rdf:li>
            <rdf:li>Wasserquelle</rdf:li>
            <rdf:li>Wasser</rdf:li>
            <rdf:li>Schule</rdf:li>
            <rdf:li>Unterricht</rdf:li>
            <rdf:li>Erziehung</rdf:li>
            <rdf:li>Quelle</rdf:li>
            <rdf:li>line art</rdf:li>
            <rdf:li>outline</rdf:li>
            <rdf:li/>
          </rdf:Bag>
        </dc:subject>
        <dc:description>line art water spring</dc:description>
        <dc:date>2016-04-04</dc:date>
        <dc:creator>
          <cc:Agent>
            <dc:title>Frank Tremmel</dc:title>
          </cc:Agent>
        </dc:creator>
      </cc:Work>
      <cc:License rdf:about="http://creativecommons.org/publicdomain/zero/1.0/">
        <cc:permits rdf:resource="http://creativecommons.org/ns#Reproduction"/>
        <cc:permits rdf:resource="http://creativecommons.org/ns#Distribution"/>
        <cc:permits rdf:resource="http://creativecommons.org/ns#DerivativeWorks"/>
      </cc:License>
    </rdf:RDF>
  </metadata>
  <g inkscape:label="Ebene 1" inkscape:groupmode="layer" id="layer1" transform="translate(0,-946.06299)">
    <path style="fill:#ffffff;fill-rule:evenodd;stroke:none;stroke-width:0.29055119;stroke-linecap:butt;stroke-linejoin:miter;stroke-miterlimit:4;stroke-dasharray:none;stroke-opacity:1;fill-opacity:1" d="m -0.22742782,1003.4652 17.73936982,-1.8194 c 2.814801,-1.1048 4.370372,-2.46154 5.685695,-3.86628 3.470333,2.09109 9.15701,3.35108 15.010236,4.54858 l 21.150788,-6.59543 c 10.403558,-0.33912 23.161999,1.75437 34.91017,3.2977 2.505928,-0.72298 3.520084,-1.96892 4.207414,-4.20741 2.682595,1.16978 5.449025,0.48443 7.846265,0.22743 l -0.11372,57.31181 -105.98136218,-0.1137 z" id="path6434" inkscape:connector-curvature="0" sodipodi:nodetypes="ccccccccccc"/>
    <path style="fill:url(#pattern6649);fill-opacity:1;fill-rule:evenodd;stroke:none;stroke-width:0.29055119;stroke-linecap:butt;stroke-linejoin:miter;stroke-miterlimit:4;stroke-dasharray:none;stroke-opacity:1" d="M -0.05686024,1003.3515 17.68251,1001.5321 c 2.814799,-1.1048 4.370369,-2.4615 5.685699,-3.8663 3.47033,2.0911 9.15701,3.3511 15.01023,4.5486 l 21.15079,-6.5954 c 10.40356,-0.3391 23.162,1.7543 34.91017,3.2977 2.50593,-0.723 3.52008,-1.9689 4.20741,-4.2074 2.682601,1.1697 5.449031,0.4844 7.846271,0.2274 l -0.11372,57.3118 -105.98136524,-0.1137 z" id="path6434-1" inkscape:connector-curvature="0" sodipodi:nodetypes="ccccccccccc"/>
    <path style="fill:#ffffff;fill-rule:evenodd;stroke:none;stroke-width:0.29055119;stroke-linecap:butt;stroke-linejoin:miter;stroke-miterlimit:4;stroke-dasharray:none;stroke-opacity:1" d="m 21.833071,1004.7161 -10.689108,10.9165 c -2.9389077,5.6733 -2.1301837,10.8468 -0.568569,15.92 1.523566,7.4703 2.615098,15.1999 7.050262,20.9233 l 65.385498,0 7.391404,-10.0068 c 2.46253,-4.6391 5.096702,-9.1533 4.321128,-16.1474 l 0,-13.3045 c 0,-1.2189 -7.546979,-9.1608 -9.438254,-8.3011 l -20.923359,-4.5486 -11.143963,6.0269 -16.715945,2.1605 z" id="path6436" inkscape:connector-curvature="0" sodipodi:nodetypes="cccccccsccccc"/>
    <path style="fill:#ffffff;fill-rule:evenodd;stroke:none;stroke-width:0.29055119;stroke-linecap:butt;stroke-linejoin:miter;stroke-miterlimit:4;stroke-dasharray:none;stroke-opacity:1" d="m 0,1003.7486 18.384776,-1.7678 3.358758,-4.06582 c 6.24611,2.89532 12.492219,4.08492 18.738329,5.12652 6.34155,-1.6947 13.028345,-2.699 18.031223,-7.07107 l 15.733126,1.59099 19.975767,1.59102 c 3.013967,0.48016 2.866023,-2.20159 3.71231,-3.88911 l 8.131731,0.53033 0.35355,-20.5061 -5.12652,-5.3033 -9.015615,-1.59099 -6.187184,0.35355 -5.303301,-5.65685 -3.181981,-9.8995 c -3.123055,-3.59926 -6.24611,-2.40152 -9.369165,-1.94454 l -10.253048,-2.2981 -12.374369,4.94975 c -2.69455,1.599 -4.712079,3.53652 -4.596194,6.54074 -0.02657,-2.11185 -1.876521,-2.765 -4.24264,-3.00521 -6.670177,1.44745 -12.817094,3.52281 -17.14734,7.77818 l -4.065864,-0.88388 c -3.443617,1.01356 -7.0571064,2.34614 -10.9601549,5.65685 -1.8602367,2.11316 -3.3819583,4.90335 -4.7729708,7.95495 z" id="path4402" inkscape:connector-curvature="0" sodipodi:nodetypes="ccccccccccccccccccccccccc"/>
    <path style="fill:url(#pattern6410);fill-opacity:1;fill-rule:evenodd;stroke:none;stroke-width:0.29055119;stroke-linecap:butt;stroke-linejoin:miter;stroke-miterlimit:4;stroke-dasharray:none;stroke-opacity:1" d="m 90.700085,978.70858 c 0,0 3.472159,9.33415 7.55834,9.0861 3.619345,-0.21971 7.984515,-0.36989 7.879975,1.20611 l 0,6.43263 c -2.78747,0.005 -5.57495,0.21365 -8.362422,-0.80408 -4.487754,-2.66129 -7.360455,-7.31363 -9.970577,-12.06118 z" id="path6318" inkscape:connector-curvature="0" sodipodi:nodetypes="csccccc"/>
    <path style="fill:url(#pattern6316);fill-opacity:1;fill-rule:evenodd;stroke:none;stroke-width:0.29055119;stroke-linecap:butt;stroke-linejoin:miter;stroke-miterlimit:4;stroke-dasharray:none;stroke-opacity:1" d="m -0.11942832,997.85993 c 0,0 8.84483732,-0.45546 11.97563332,-1.93884 2.834014,-1.34277 2.060155,-6.47004 5.883165,-6.08774 l 4.321128,7.05026 -3.638845,5.00349 -18.38026557,1.592 z" id="path6224" inkscape:connector-curvature="0" sodipodi:nodetypes="csccccc"/>
    <path style="fill:url(#pattern6222);fill-opacity:1;fill-rule:evenodd;stroke:none;stroke-width:0.29055119;stroke-linecap:butt;stroke-linejoin:miter;stroke-miterlimit:4;stroke-dasharray:none;stroke-opacity:1" d="m 17.850549,984.33714 c 0,0 9.080929,8.79412 14.955865,9.97057 10.535697,2.10976 9.447076,-8.06962 19.780337,-6.59344 3.04077,1.55455 4.56213,3.1091 5.467736,4.66365 l -1.447342,5.46774 -16.724838,5.46774 c -6.164604,-1.4812 -12.329208,-2.038 -18.493811,-6.75427 l -0.643264,-3.69876 -4.181209,-4.82447 z" id="path6130" inkscape:connector-curvature="0" sodipodi:nodetypes="cscccccccc"/>
    <path style="fill:url(#pattern6128);fill-opacity:1;fill-rule:evenodd;stroke:none;stroke-width:0.29055119;stroke-linecap:butt;stroke-linejoin:miter;stroke-miterlimit:4;stroke-dasharray:none;stroke-opacity:1" d="m 43.179029,965.52169 c 0,0 0.738665,6.14055 -1.045302,7.07589 -3.465388,1.81692 -7.12814,-1.08553 -11.015879,-0.64325 -5.301612,0.60313 -8.861679,7.90746 -14.071378,6.75425 -2.203963,-0.48786 -4.583249,-4.98528 -4.583249,-4.98528 -1.044155,1.30983 -1.275268,6.48179 -0.884487,8.2016 1.595389,1.57756 3.336976,2.27793 5.146104,2.57305 l 12.543629,-7.07589 c 4.205603,-2.12525 8.228083,-0.77114 12.221997,1.12571 l 4.502841,2.41224 5.146104,-8.36242 z" id="path6036" inkscape:connector-curvature="0" sodipodi:nodetypes="cssscccccccc"/>
    <path style="fill:url(#pattern6034);fill-opacity:1;fill-rule:evenodd;stroke:none;stroke-width:0.29055119;stroke-linecap:butt;stroke-linejoin:miter;stroke-miterlimit:4;stroke-dasharray:none;stroke-opacity:1" d="m 48.042893,982.53898 c 0,0 9.289981,2.00848 12.972272,4.29289 2.158354,1.33899 3.685034,2.7691 5.838388,4.11612 3.908162,2.44472 7.052403,0.16918 10.646447,0.91421 1.981278,0.41071 8.068259,4.24154 12,3 1.577347,-0.49808 3.25,-3.75 3.25,-3.75 2.025267,1.05175 3.906779,2.28319 5,4.5 l -2.75,4.5 -26.5,-3.75 -10.75,-0.25 0.25,-5 z" id="path5942" inkscape:connector-curvature="0" sodipodi:nodetypes="cssssccccccc"/>
    <path style="fill:url(#pattern5940);fill-opacity:1;fill-rule:evenodd;stroke:none;stroke-width:0.29055119;stroke-linecap:butt;stroke-linejoin:miter;stroke-miterlimit:4;stroke-dasharray:none;stroke-opacity:1" d="m 62.755727,977.40888 c 0,0 7.206206,2.24178 19.445436,1.94454 3.183223,-0.0773 6.010408,-7.42462 6.010408,-7.42462 1.986108,4.4571 1.782853,8.0932 0,11.13694 l -11.844039,-0.17679 c -4.537268,-0.84968 -9.074537,-1.02669 -13.611805,-5.48007 z" id="path4404" inkscape:connector-curvature="0" sodipodi:nodetypes="cscccc"/>
    <path style="color:#000000;font-style:normal;font-variant:normal;font-weight:normal;font-stretch:normal;font-size:medium;line-height:normal;font-family:sans-serif;text-indent:0;text-align:start;text-decoration:none;text-decoration-line:none;text-decoration-style:solid;text-decoration-color:#000000;letter-spacing:normal;word-spacing:normal;text-transform:none;direction:ltr;block-progression:tb;writing-mode:lr-tb;baseline-shift:baseline;text-anchor:start;white-space:normal;clip-rule:nonzero;display:inline;overflow:visible;visibility:visible;opacity:1;isolation:auto;mix-blend-mode:normal;color-interpolation:sRGB;color-interpolation-filters:linearRGB;solid-color:#000000;solid-opacity:1;fill:#000000;fill-opacity:1;fill-rule:evenodd;stroke:none;stroke-width:2.83464575;stroke-linecap:butt;stroke-linejoin:miter;stroke-miterlimit:4;stroke-dasharray:none;stroke-dashoffset:0;stroke-opacity:1;color-rendering:auto;image-rendering:auto;shape-rendering:auto;text-rendering:auto;enable-background:accumulate" d="m 59.219707,947.61306 c -5.594315,0.31486 -9.953003,3.59439 -14.994749,5.83271 -2.148914,2.0191 -3.834098,4.13174 -3.834098,4.13174 -6.769967,-2.35803 -15.47995,1.66727 -20.260996,5.57461 -4.527464,-1.33915 -9.222842,1.04283 -12.8394687,3.57935 -3.2255205,2.81176 -6.0327973,5.03549 -7.53864426,9.1601 l 0.16661756,2.4084 c 0.60501252,-0.18929 2.7494375,-4.02135 3.1711687,-5.12162 3.4803352,-4.16167 8.6215567,-7.0535 14.2014397,-7.59381 1.672724,0.84964 -3.593129,3.53781 -4.488252,5.3061 -2.549078,2.33568 -2.274893,8.33638 -4.5498772,9.23243 -3.4648145,-0.0278 -5.4185407,2.98322 -8.37255738,4.44614 l -0.0207669,2.33971 c 2.37687528,-1.1342 7.04650968,-5.66072 9.91052968,-4.42009 4.1940538,1.0286 5.7896248,4.90422 7.2628968,8.30186 3.459591,2.0027 4.32722,9.40001 -1.120576,9.93871 -5.357685,0.5298 -10.7019575,1.1378 -16.05399449,1.6923 l -0.0227137,2.6686 c 5.54501799,-0.6878 13.20461519,-0.6741 18.62818219,-2.1686 1.09035,-0.3005 1.944544,-1.4142 4.241485,-3.13122 5.428475,2.29252 14.095053,5.78782 19.928745,4.30572 5.565166,-1.2663 11.177582,-2.9682 16.084114,-5.91861 5.013295,-1.394 10.626993,0.7717 15.744621,1.6304 5.259931,1.66211 11.318825,1.17371 16.632283,1.45111 3.295739,0.7443 8.185389,-0.294 8.415627,-4.69881 0.623387,0.4201 4.600447,1.2337 6.469567,0.399 l 0.14487,-3.1672 c -3.7521,0.4049 -6.765804,1.47198 -9.427089,-1.0003 -2.892462,-1.87484 -5.198858,-6.35216 -6.602861,-9.85285 1.869611,-3.36465 1.350209,-5.92621 -0.104666,-9.45493 -0.466458,-1.00534 -1.85851,-3.85845 -1.85851,-3.85845 1.999054,-0.89689 8.124414,0.45927 9.801292,0.58709 3.739574,0.28505 5.978274,7.00159 8.277644,7.10611 l -0.1214,-3.63923 c -0.76931,-1.85561 -2.81922,-3.08305 -4.01242,-3.86493 -3.538472,-2.33826 -10.933759,-2.78955 -14.987391,-2.27461 -3.725949,-2.00733 -5.208126,-4.30117 -6.004229,-8.46174 -0.512767,-5.11673 -4.369,-10.10515 -9.947854,-9.473 -3.929872,0.72794 -7.425431,-1.31981 -11.175781,-1.94336 l -0.742188,-0.0488 z m -0.632812,2.82812 c 3.920461,0.0353 7.400412,2.77537 11.432346,2.02684 3.807168,-0.7482 7.644625,1.71455 7.898383,5.74699 0.609759,4.77409 3.614354,8.60665 7.57172,11.13608 3.698231,3.23123 2.384949,8.89324 0.398103,11.17167 -1.002405,2.20329 -2.21811,2.20048 -5.372816,1.41693 -6.282488,-0.56989 -12.929416,-1.87841 -17.637718,-6.40144 -2.186671,-1.85061 -4.899904,-3.83185 -7.666971,-4.02285 -3.128675,-0.9509 -7.225373,-4.43199 -10.128907,-7.13476 -5.301388,-1.66096 -3.116394,-7.30815 0.511658,-9.46554 4.183184,-1.82669 8.436626,-3.83039 12.994202,-4.47392 z m -21.3489,8.06506 c 4.335104,-0.79435 1.54093,7.69844 5.775244,8.64862 2.538022,1.95975 3.933893,3.75912 5.940584,6.01308 -0.248605,4.03966 -4.473175,8.17854 -7.491189,4.08159 -4.570593,-2.74318 -10.294192,-3.4363 -14.660895,-0.42944 -4.14956,1.63636 -7.382115,5.00663 -11.674448,4.52603 -4.70691,-1.46163 -1.544185,-5.58717 -0.279118,-8.41527 3.297623,-2.55986 5.768738,-6.45091 8.976151,-9.0241 3.60943,-2.53367 8.960052,-5.19945 13.413671,-5.40051 z m 14.709369,12.6368 c 1.206907,0.99631 3.609203,0.95779 5.097773,1.78426 1.03935,0.57705 1.373841,1.78686 1.158962,1.96322 -2.726312,2.23758 -6.276581,1.79563 -7.32986,1.70125 l 1.189138,-1.83422 z m 6.698125,4.75713 c 3.950892,2.98873 7.768489,6.52242 12.857273,7.38102 5.624224,1.36195 10.312378,2.18349 16.063493,1.27913 1.868369,2.84882 3.465708,6.57227 6.719808,8.40328 3.479681,1.88139 0.578693,5.83479 -3.548946,4.37899 -5.260763,-1.1004 -8.635113,0.045 -13.885611,-1.4385 -5.342614,-1.0031 -11.60395,-2.1294 -17.092128,-2.0196 -0.02463,-4.87131 -4.610162,-5.67002 -7.471068,-8.71874 -1.93067,-2.06836 -7.290363,-5.05527 -1.849651,-6.25298 3.359416,-0.72298 3.886119,0.37935 8.20683,-3.0126 z m -23.984375,1.27344 c 8.016074,0.4583 12.5619,8.03562 18.453142,12.4147 4.26055,1.5578 5.401881,6.38048 -0.205506,7.30368 -7.568894,3.0461 -14.989006,5.35151 -23.001346,2.0806 -3.830219,-1.2454 -6.674407,-1.03845 -6.934598,-5.69285 -2.984222,-3.11417 -7.119279,-7.89438 -1.858567,-10.28973 4.724131,-1.45872 8.38529,-5.79091 13.546875,-5.8164 z" id="path4136" inkscape:connector-curvature="0" sodipodi:nodetypes="cccccccccccccccsccscccccccccccssccccccccccccccccccccccccccccccsscccccccccccccccccccc"/>
    <path style="color:#000000;font-style:normal;font-variant:normal;font-weight:normal;font-stretch:normal;font-size:medium;line-height:normal;font-family:sans-serif;text-indent:0;text-align:start;text-decoration:none;text-decoration-line:none;text-decoration-style:solid;text-decoration-color:#000000;letter-spacing:normal;word-spacing:normal;text-transform:none;direction:ltr;block-progression:tb;writing-mode:lr-tb;baseline-shift:baseline;text-anchor:start;white-space:normal;clip-rule:nonzero;display:inline;overflow:visible;visibility:visible;opacity:1;isolation:auto;mix-blend-mode:normal;color-interpolation:sRGB;color-interpolation-filters:linearRGB;solid-color:#000000;solid-opacity:1;fill:#000000;fill-opacity:1;fill-rule:evenodd;stroke:none;stroke-width:2.83464575;stroke-linecap:butt;stroke-linejoin:miter;stroke-miterlimit:4;stroke-dasharray:none;stroke-dashoffset:0;stroke-opacity:1;color-rendering:auto;image-rendering:auto;shape-rendering:auto;text-rendering:auto;enable-background:accumulate" d="M 66.939453 52.486328 C 66.420793 52.473556 65.920329 52.491257 65.441406 52.544922 C 61.61002 52.974242 60.243528 56.222919 57.724609 56.949219 C 51.394677 60.224219 44.173974 59.471328 37.365234 60.111328 C 32.003871 60.089328 26.596057 59.102181 21.634766 56.863281 C 15.556347 61.434881 8.640639 67.052209 7.8476562 75.537109 C 7.1181041 80.566609 9.1809828 85.394709 9.5957031 90.287109 C 10.305083 95.745009 10.797849 102.67552 14.845703 106.39062 L 22.75 106.25781 C 21.053324 103.84961 15.949896 99.752816 15.287109 96.291016 C 14.01712 91.157716 13.635703 85.777944 11.707031 80.839844 C 9.9690503 73.928644 14.21035 67.207091 19.064453 63.150391 C 21.393929 59.305891 24.650768 61.490928 27.904297 62.298828 C 35.166843 64.161128 42.64651 63.078794 49.988281 62.558594 C 55.345693 62.059494 60.627901 59.769819 64.421875 55.574219 C 71.313946 55.703419 77.741147 58.859697 84.488281 59.966797 C 87.982934 61.717397 92.206191 64.325753 92.707031 68.876953 C 91.879429 72.706753 91.729808 76.682053 92.478516 80.564453 C 93.207418 84.909653 92.577246 89.223734 89.791016 92.865234 C 87.482481 95.493634 87.681409 99.201909 85.154297 101.47461 C 83.617611 103.01321 79.064453 106.39258 79.064453 106.39258 L 85.076172 106.66992 C 86.56388 105.84222 88.144267 104.47611 88.919922 103.81641 C 90.523027 99.886206 93.027842 96.643622 95.117188 92.982422 C 98.292198 86.401222 95.380801 79.170566 96.599609 72.322266 C 98.413012 66.867866 93.483999 60.883875 89.306641 58.359375 C 86.583295 56.136775 82.795566 56.363597 79.621094 55.466797 C 75.107449 54.165234 70.570076 52.575736 66.939453 52.486328 z M 67.302734 60.804688 C 67.171047 60.792153 67.067428 60.811475 66.998047 60.867188 C 66.443001 61.312788 69.240276 63.663594 71.814453 66.371094 C 74.388629 69.078594 76.613437 72.453741 76.542969 74.806641 C 76.457419 77.663141 75.95873 80.267406 75.119141 82.628906 C 73.920458 86.000406 70.261461 87.6962 67.306641 90.4375 C 64.334991 93.1944 62.683075 96.448266 59.283203 97.697266 C 55.455982 99.103166 50.590796 96.832031 47.152344 96.832031 C 43.713891 96.832031 42.406823 98.545966 40.84375 98.697266 C 39.280677 98.848566 37.920054 98.864853 36.363281 98.376953 C 32.621593 97.204253 29.004566 95.368513 25.945312 92.882812 C 22.979339 90.472812 22.015624 87.063087 20.396484 82.992188 C 19.233501 80.068188 17.141027 77.468022 17.148438 74.482422 C 17.152838 72.702922 18.89405 69.894153 20.746094 67.689453 C 22.598188 65.484653 24.317899 63.738616 23.865234 63.166016 C 23.41257 62.593416 21.336416 64.232528 19.390625 66.548828 C 17.444834 68.865128 15.383861 71.714616 15.376953 74.478516 C 15.367553 78.247716 17.745388 81.122638 18.75 83.648438 C 20.328453 87.617037 21.201487 92.338225 24.650391 95.140625 C 27.908418 97.787825 31.812417 99.452747 35.746094 100.68555 C 37.601583 101.26715 39.715389 101.24018 41.369141 101.08008 C 43.022885 100.92008 45.11661 99.576672 47.111328 99.576172 C 51.592662 99.576172 55.808311 101.69661 60.246094 100.06641 C 64.373732 98.550106 65.842076 94.213028 68.511719 91.736328 C 71.159824 89.279628 76.348821 87.885362 77.849609 83.664062 C 78.752945 81.123362 78.754027 78.066475 78.314453 74.859375 C 77.845128 71.435275 75.60414 67.8858 72.919922 65.0625 C 70.57123 62.592112 68.224548 60.892431 67.302734 60.804688 z M 60.652344 63.146484 C 60.564692 63.13452 60.498181 63.140428 60.457031 63.166016 C 59.798629 63.575316 66.407113 68.425753 66.642578 74.689453 C 66.698748 76.183553 66.139496 77.332456 65.212891 78.535156 C 64.286333 79.737756 62.992557 80.929244 61.779297 82.339844 C 59.544414 84.938344 58.189064 87.945156 55.464844 89.160156 C 53.11465 90.208256 50.510005 89.205203 47.478516 89.283203 C 43.731703 89.380203 39.751417 89.952297 36.416016 88.154297 C 33.298685 86.473797 31.224421 83.8563 29.201172 81.125 C 27.587438 78.9465 25.942358 77.037 25.808594 75.125 C 25.650691 72.868 26.935097 70.309456 28.337891 68.347656 C 29.740733 66.385756 30.868171 64.875144 30.583984 64.402344 C 30.299797 63.929444 28.413631 65.196559 26.896484 67.318359 C 25.379384 69.440059 23.213718 72.360637 23.421875 75.335938 C 23.614798 78.093538 25.795067 80.365213 27.335938 82.445312 C 29.379601 85.204213 31.982957 88.796947 35.486328 90.685547 C 39.460637 92.827947 43.947957 91.147487 47.523438 91.054688 C 50.060842 90.988687 53.064436 92.966219 56.185547 91.574219 C 59.659466 90.024919 61.131323 85.811794 63.123047 83.496094 C 64.246524 82.189894 65.997822 81.169869 67.058594 79.792969 C 68.119365 78.416069 68.488967 76.615647 68.414062 74.623047 C 68.152973 67.677766 61.967125 63.325951 60.652344 63.146484 z M 57.263672 66.773438 C 57.105597 66.769327 56.987008 66.803953 56.921875 66.876953 C 56.400815 67.460953 59.676293 69.250719 59.927734 72.949219 C 60.062834 74.936419 58.998708 76.537316 57.417969 78.666016 C 56.102432 80.437616 55.025564 82.331334 52.613281 83.177734 C 51.512492 83.564034 49.43284 83.083625 47.169922 83.265625 C 44.602402 83.472125 42.739772 83.829544 40.931641 82.964844 C 39.06464 82.072044 37.793211 79.918113 36.396484 78.007812 C 35.030482 76.139513 33.861473 75.020587 33.765625 73.367188 C 33.587744 70.298688 36.494386 67.871003 35.884766 67.408203 C 35.275147 66.945503 31.754993 69.311603 31.996094 73.470703 C 32.135504 75.875503 33.70985 77.333634 34.966797 79.052734 C 36.267071 80.831134 37.541229 83.789806 40.080078 85.003906 C 42.471652 86.147606 44.859519 85.22825 47.310547 85.03125 C 49.157179 84.88275 51.695432 85.973616 53.640625 85.291016 C 56.681072 84.224216 57.623271 81.360956 58.839844 79.722656 C 60.443646 77.562856 61.877353 75.505825 61.695312 72.828125 C 61.417288 68.738637 58.370199 66.802213 57.263672 66.773438 z " transform="translate(0,946.06299)" id="path4152"/>
    <path style="fill:#ffffff;fill-rule:evenodd;stroke:none;stroke-width:0.29055119;stroke-linecap:butt;stroke-linejoin:miter;stroke-miterlimit:4;stroke-dasharray:none;stroke-opacity:1" d="m 52.976886,971.73333 c -4.978254,6.21244 -7.558958,13.61621 -10.220456,21.72506 l -3.866273,18.42161 -0.843099,7.1697 1.75281,0.5629 0.909712,2.9566 4.0937,0 2.501706,1.592 3.18399,-1.592 3.183989,0.2274 2.501706,-5.9131 -5.003412,-17.96684 3.18399,-17.51194 2.715337,-8.61466 c -1.334144,-0.62795 -2.008882,-1.07207 -4.0937,-1.05673 z" id="path6431" inkscape:connector-curvature="0" sodipodi:nodetypes="ccccccccccccccc"/>
    <path style="color:#000000;font-style:normal;font-variant:normal;font-weight:normal;font-stretch:normal;font-size:medium;line-height:normal;font-family:sans-serif;text-indent:0;text-align:start;text-decoration:none;text-decoration-line:none;text-decoration-style:solid;text-decoration-color:#000000;letter-spacing:normal;word-spacing:normal;text-transform:none;direction:ltr;block-progression:tb;writing-mode:lr-tb;baseline-shift:baseline;text-anchor:start;white-space:normal;clip-rule:nonzero;display:inline;overflow:visible;visibility:visible;opacity:1;isolation:auto;mix-blend-mode:normal;color-interpolation:sRGB;color-interpolation-filters:linearRGB;solid-color:#000000;solid-opacity:1;fill:#000000;fill-opacity:1;fill-rule:evenodd;stroke:none;stroke-width:2.83464575;stroke-linecap:butt;stroke-linejoin:miter;stroke-miterlimit:4;stroke-dasharray:none;stroke-dashoffset:0;stroke-opacity:1;color-rendering:auto;image-rendering:auto;shape-rendering:auto;text-rendering:auto;enable-background:accumulate" d="M 52.310547 25.140625 C 49.751614 28.102465 44.517 38.951574 42.404297 45.958984 C 40.291593 52.966404 37.694468 64.269409 37.480469 70.912109 C 37.364223 72.003209 37.014439 73.306322 37.373047 73.919922 C 37.732949 74.535722 38.977053 73.929178 39.103516 74.205078 C 39.232819 74.487278 38.996267 75.453647 39.234375 75.998047 C 39.472483 76.542447 39.889198 77.250588 40.632812 77.679688 C 41.719031 78.306488 43.070561 77.376094 44.183594 77.558594 C 45.520778 77.777794 46.650033 79.5103 47.822266 79.5 C 49.244185 79.487 49.648884 78.259825 50.857422 77.765625 C 51.981304 77.306125 53.917797 77.748891 54.455078 77.212891 C 55.191105 76.478291 54.955639 75.398722 55.390625 74.544922 C 55.885751 73.573122 57.91042 71.6789 57.763672 70.625 C 55.726266 63.7782 52.703727 57.993791 53.257812 50.363281 C 53.87144 41.912801 55.184054 34.724226 57.943359 26.878906 L 56.457031 26.625 C 53.610661 34.71786 50.77688 41.669345 50.150391 50.296875 C 49.708007 56.389055 51.9168 64.055641 53.158203 69.306641 C 53.574974 71.069541 53.940269 72.366681 53.650391 73.738281 C 53.42718 74.794381 53.39022 75.392637 52.853516 75.648438 C 52.009409 76.050737 50.991633 75.267063 50.388672 75.414062 C 49.446733 75.643663 48.767277 76.702116 47.859375 76.666016 C 46.649238 76.618016 45.554133 75.266488 44.455078 75.367188 C 43.286845 75.474187 42.379894 75.972553 41.298828 75.564453 C 41.019374 75.458953 41.014564 73.479247 40.707031 72.935547 C 40.151355 71.953147 39.380993 72.548972 39.048828 71.951172 C 39.172132 68.619972 42.462963 53.315467 43.841797 48.742188 C 46.647114 39.437587 49.273993 31.035209 53.675781 25.943359 L 52.310547 25.140625 z M 52.875 28.976562 C 52.579738 28.797376 50.569462 31.847545 48.953125 35.423828 C 48.075818 37.364944 46.234279 43.497263 46.75 43.636719 C 47.265721 43.776174 49.090583 37.710952 49.912109 35.792969 C 51.412955 32.289008 53.169384 29.155217 52.875 28.976562 z M 52.308594 33.068359 C 52.308594 33.068359 48.466469 43.127011 47.800781 48.582031 C 47.434272 51.585421 47.730571 57.415547 48.103516 62.560547 C 48.476461 67.705647 49.466797 72.070312 49.466797 72.070312 C 49.466797 72.070312 49.535616 67.608222 49.164062 62.482422 C 48.79251 57.356622 48.518264 51.474198 48.855469 48.710938 C 49.488101 43.526777 52.308594 33.068359 52.308594 33.068359 z M 46.464844 48.367188 C 45.934727 48.325446 44.754048 56.73441 44.552734 60.642578 C 44.315126 65.25534 44.254591 73.0972 44.785156 73.089844 C 45.315722 73.082487 45.376281 65.245597 45.615234 60.640625 C 45.815877 56.773945 46.994961 48.408929 46.464844 48.367188 z M 44.005859 53.328125 C 43.493607 53.178825 41.746169 60.957128 41.330078 63.361328 C 40.831591 66.241528 40.333771 71.611938 40.863281 71.710938 C 41.392792 71.809938 41.860575 66.597897 42.330078 63.841797 C 42.751593 61.367297 44.518111 53.477415 44.005859 53.328125 z " transform="translate(0,946.06299)" id="path4158"/>
    <path style="fill:#ffffff;fill-rule:evenodd;stroke:#ff0000;stroke-width:0.29055119;stroke-linecap:butt;stroke-linejoin:miter;stroke-miterlimit:4;stroke-dasharray:none;stroke-opacity:1" d="m 2.8946836,999.93626 c 2.9234163,-2.0826 4.2299151,-7.12954 5.9501828,-11.41791 2.4702876,-1.98117 4.6684776,-4.09839 8.3624196,-5.46774 2.355974,0.43681 4.612681,1.17142 6.754261,2.25142 l 11.417919,9.64895 3.37713,3.69876 c 0.666026,-3.65571 -0.638993,-7.55781 -1.608157,-11.41792 -0.268658,-2.43162 -2.040583,-4.58991 -4.663657,-6.59345 -3.532834,-1.59665 -6.652139,-2.26287 -9.327314,-1.92979 1.292799,-1.4884 2.699169,-2.74966 3.377131,-5.46773 l 2.894684,-6.75426 c 1.561716,-1.51427 3.654693,-2.93194 7.55834,-4.0204 -2.971756,-1.55777 -6.145519,-1.29747 -9.327314,-0.96489 -3.649935,1.06084 -6.319131,4.11374 -8.040787,7.31711 0.352839,-2.0482 0.489357,-5.00863 -1e-6,-7.47793 -1.674141,-3.87332 -3.638762,-7.38179 -7.236708,-10.61384 l 1.286526,10.29221 c 0.311502,1.99673 -0.387017,3.18545 -1.12571,4.34203 -2.6323883,-2.82675 -5.8131177,-4.28265 -8.8448667,-6.111 l -1.7689733,0.24122 4.3420254,9.40772 0.8040787,7.23671 c 1.6617626,3.08071 3.3235249,3.31315 4.9852879,4.66366 -2.4658414,0.65947 -4.9316828,0.96306 -7.3975242,2.41224 -3.2606901,1.9344 -3.70100923,5.27899 -4.02039379,8.68405 z" id="path6429" inkscape:connector-curvature="0" sodipodi:nodetypes="cccccccccccccccccccccccccc"/>
    <path style="color:#000000;font-style:normal;font-variant:normal;font-weight:normal;font-stretch:normal;font-size:medium;line-height:normal;font-family:sans-serif;text-indent:0;text-align:start;text-decoration:none;text-decoration-line:none;text-decoration-style:solid;text-decoration-color:#000000;letter-spacing:normal;word-spacing:normal;text-transform:none;direction:ltr;block-progression:tb;writing-mode:lr-tb;baseline-shift:baseline;text-anchor:start;white-space:normal;clip-rule:nonzero;display:inline;overflow:visible;visibility:visible;opacity:1;isolation:auto;mix-blend-mode:normal;color-interpolation:sRGB;color-interpolation-filters:linearRGB;solid-color:#000000;solid-opacity:1;fill:#000000;fill-opacity:1;fill-rule:evenodd;stroke:none;stroke-width:2.12598419;stroke-linecap:butt;stroke-linejoin:miter;stroke-miterlimit:4;stroke-dasharray:none;stroke-dashoffset:0;stroke-opacity:1;color-rendering:auto;image-rendering:auto;shape-rendering:auto;text-rendering:auto;enable-background:accumulate" d="m 11.166016,2.7636719 c 0,0 2.031112,11.0504181 1.644531,14.6738281 C 11.384906,16.96465 9.6417639,15.89549 7.7949219,14.75 4.9033019,12.9565 0.71168338,11.121035 0.02148438,12.953125 c 2.20533502,2.13689 4.69133072,7.780638 5.19921872,10.898437 0.449945,2.762101 0.579982,5.290504 2.171875,7.964844 0.716048,1.20294 1.803449,1.059208 2.1875,2.798828 -2.916371,0.87538 -6.3102695,1.841311 -7.8359375,4.400391 -2.60655195,4.37209 -1.41084683,11.473485 0.6113282,15.859375 2.582565,0.9811 6.4461329,-8.564197 6.765625,-10.591797 0.397126,-2.52028 3.6644772,-4.023962 5.6875002,-5.195312 1.866439,-1.08068 2.845019,-0.998855 4.984375,-0.859375 2.378791,0.15509 4.032954,1.831706 5.808593,3.191406 4.921897,3.76894 10.964304,9.030927 14.212891,13.466797 0.17601,-4.95884 -1.026564,-11.587875 -2.542969,-16.365235 -0.996933,-3.14079 -4.116557,-4.635777 -7.023437,-5.810546 -1.387857,-0.56088 -2.787146,-1.034502 -5.273438,-0.613282 1.916433,-2.89019 3.389646,-8.159233 5.248047,-11.027344 1.902957,-2.936869 8.404316,-3.374503 7.589844,-5.126953 -0.814472,-1.75245 -8.066177,-2.358132 -12.574219,-0.914062 -1.489614,0.47717 -3.954602,2.805011 -4.798828,5.457031 0.990156,-6.0021 -2.277019,-10.7301474 -5.246094,-13.9296874 -0.884525,-0.95319 -4.027343,-3.7929687 -4.027343,-3.7929687 z m 3.074218,5.0351562 c 2.913695,3.8474259 4.646247,6.1032259 5.1875,8.9335939 0.631906,3.30442 -0.791944,6.586661 -1.488281,9.769531 -0.47811,2.185387 -1.343807,4.262625 -2.195312,6.332031 -0.177549,-0.595987 -0.410283,-1.232671 -0.341797,-1.689453 -0.381344,-2.83908 -1.101591,-6.027208 0.65039,-8.580078 1.287242,-1.87219 1.82493,-4.195207 1.181641,-6.404297 -0.65507,-2.893063 -1.766709,-5.661294 -2.994141,-8.3613279 z m 0.0039,2.5117189 c 1.091531,2.796031 2.310689,5.679834 2.220703,8.724609 -0.540541,2.57253 -2.817726,4.624673 -2.53711,7.408203 0.02977,1.928606 0.295506,3.840259 0.644532,5.736329 -1.754074,-2.357139 -3.405323,-4.984033 -3.296875,-7.894532 0.113715,-3.05184 3.086619,-4.40218 3.404297,-7.52539 0.173999,-1.710654 0.0229,-4.049992 -0.435547,-6.449219 z m -9.5156254,4.642578 c 2.6527124,0.947013 6.4143174,3.381059 6.4570314,4.851563 -0.380765,0.434273 -0.683296,0.956238 -0.939453,1.511718 C 9.7800775,20.561469 9.1073455,19.759707 8.9023438,19.236328 7.7402245,17.594208 6.2091157,16.295407 4.7285156,14.953125 Z m -0.8339844,0.761719 c 0.5196724,0.444836 1.2462795,0.880643 1.546875,1.322265 1.8211773,1.590068 3.3318553,3.551168 4.2636719,5.789063 -0.4640646,1.899381 -0.3492912,4.020746 0.3124999,5.558594 0.975093,2.26589 2.282837,4.371881 3.734375,6.357422 C 12.101782,34.447248 10.460014,32.328682 9.2167969,30.701172 7.2800599,28.165772 8.1663796,25.246578 7.0566406,22.392578 6.4657907,20.873041 5.0814541,17.689924 3.8945312,15.714844 Z m 25.7597658,0.292968 c 1.014386,-0.02894 2.12004,0.07282 3.267578,0.34961 -3.180296,0.741758 -6.520861,1.551883 -8.941406,3.835937 -2.667292,3.01432 -0.902871,7.77591 -3.783203,10.69336 -0.663422,0.899524 -1.58675,1.73293 -2.398438,2.542969 0.924648,-2.745102 1.118318,-5.522084 1.998047,-8.353516 0.888917,-2.861 2.501389,-5.632006 4.816406,-7.572266 0.836028,-0.700687 2.701577,-1.429359 5.041016,-1.496094 z m 2.763672,1.544922 c -2.185333,1.111256 -4.510202,2.887807 -5.058594,4.873047 -1.039957,3.76475 -2.152551,8.152626 -5.691406,10.197266 -0.794001,0.458746 -2.203326,1.283231 -3.205078,1.712891 0.410469,-0.479595 0.818616,-1.025582 1.197265,-1.25 1.780839,-1.722481 3.272647,-3.880495 3.441406,-6.427735 0.312703,-2.42597 0.434566,-5.489251 2.941407,-6.744141 1.976842,-1.138617 4.161374,-1.830787 6.375,-2.361328 z m -7.076172,15.621094 c 0.138465,-0.0077 0.272628,-0.008 0.400391,0.002 2.251035,0.17499 5.552799,1.431031 7.464843,2.925781 2.004169,1.566767 4.175745,8.777039 5.025391,13.931641 -0.3258,-0.625038 -0.760062,-1.293108 -0.826172,-1.792969 -1.771535,-3.60866 -3.360538,-7.601477 -6.642578,-10.123046 -2.082395,-1.440871 -4.304829,-2.889645 -6.798828,-3.453126 -0.39681,-0.0443 -0.797304,-0.04458 -1.195313,-0.01758 -0.690494,0.08252 -1.441422,0.207682 -2.179687,0.369141 1.568775,-0.874605 3.389046,-1.765963 4.751953,-1.841797 z m -2.738281,2.552734 c 1.423558,-0.07612 2.834497,0.333242 4.060546,1.121094 2.695396,1.37374 5.290666,3.18833 6.722657,5.9375 1.239319,2.053577 2.303511,4.206163 3.27539,6.398438 C 33.184132,45.596707 27.111674,40.587221 24.441406,38.960938 23.294545,38.262462 20.12594,37.344332 18.929688,36.6875 c 0.717789,-0.234282 1.598484,-0.790763 2.251953,-0.71875 0.470838,-0.136877 0.947355,-0.216814 1.421875,-0.242188 z m -10.660157,0.175782 c 0.928198,0.02278 1.838708,0.1598 2.699219,0.402344 -3.145872,0.321081 -6.3685997,1.06677 -8.6992186,3.27539 -2.0409418,2.11545 -1.6570786,5.292803 -2.1972656,7.970703 0.043058,1.051093 -0.6364437,2.50348 -0.8730469,3.677735 C 1.2805506,46.319403 0.92961837,42.043363 3.3828125,39.314453 5.4675187,36.99544 8.7952191,35.825094 11.943359,35.902344 Z m 2.855469,1.447265 c -2.641449,1.22127 -7.0356545,3.17947 -7.4355468,5.40625 -0.2983089,1.661118 -1.4451023,5.770811 -3.2109374,8.31836 0.1655936,-1.013915 0.2056072,-2.221858 0.5664062,-2.892578 0.5088086,-2.39483 0.2869717,-5.017464 1.4628906,-7.220703 2.0762018,-2.54821 5.4666484,-3.260259 8.6171874,-3.611329 z" transform="translate(0,946.06299)" id="path4164" inkscape:connector-curvature="0" sodipodi:nodetypes="ccscsscscsssscsscssscsccsscccccccccsscccccccccscsscsccccssscsscccccsssccccccsscccsccssccccsscscccc"/>
    <g id="g6477">
      <path sodipodi:nodetypes="ccccc" inkscape:connector-curvature="0" id="path6438-4" d="m 96.178393,1045.0453 c 0.375809,-1.2452 -0.435279,-1.963 2.444849,-4.3212 2.000878,-0.027 4.084348,-0.5503 5.799408,1.1372 0.13633,1.3577 -1.48294,1.9352 -2.61542,2.7291 -2.20349,1.0983 -4.390949,1.8181 -5.628837,0.4549 z" style="fill:#ffffff;fill-rule:evenodd;stroke:#ff00ff;stroke-width:0.29055119;stroke-linecap:butt;stroke-linejoin:miter;stroke-miterlimit:4;stroke-dasharray:none;stroke-opacity:1"/>
      <path sodipodi:nodetypes="ssssssssssssssss" inkscape:connector-curvature="0" id="path4273" d="m 97.375157,1041.2344 c -0.963048,0.7766 -1.712934,1.9515 -1.702753,3.2186 0.0079,0.9795 0.792386,1.9448 1.808378,2.0162 1.200513,0.084 2.305486,-0.4738 3.377188,-0.9263 1.25236,-0.5288 2.59178,-1.0385 3.5238,-2.0699 0.47881,-0.5299 0.59604,-1.3507 0.24801,-1.9916 -0.5015,-0.9235 -1.54982,-1.3898 -3.06253,-1.4552 -1.51272,-0.065 -3.040508,0.2796 -4.192093,1.2082 z m 6.366833,0.6875 c 0.2702,0.4252 -0.0682,0.9022 -0.4078,1.1743 -1.00609,0.8062 -1.61421,0.9306 -2.77881,1.4415 -0.734871,0.3224 -1.421219,0.7516 -2.238165,0.7254 -0.529722,-0.017 -0.774945,-0.7846 -0.792021,-1.2932 -0.02771,-0.8254 0.414608,-1.2208 0.958835,-1.7988 0.791265,-0.8403 1.252949,-1.2964 2.590561,-1.3809 1.33762,-0.084 2.19264,0.3846 2.6674,1.1317 z" style="color:#000000;font-style:normal;font-variant:normal;font-weight:normal;font-stretch:normal;font-size:medium;line-height:normal;font-family:sans-serif;text-indent:0;text-align:start;text-decoration:none;text-decoration-line:none;text-decoration-style:solid;text-decoration-color:#000000;letter-spacing:normal;word-spacing:normal;text-transform:none;direction:ltr;block-progression:tb;writing-mode:lr-tb;baseline-shift:baseline;text-anchor:start;white-space:normal;clip-rule:nonzero;display:inline;overflow:visible;visibility:visible;opacity:1;isolation:auto;mix-blend-mode:normal;color-interpolation:sRGB;color-interpolation-filters:linearRGB;solid-color:#000000;solid-opacity:1;fill:#000000;fill-opacity:1;fill-rule:evenodd;stroke:none;stroke-width:1px;stroke-linecap:butt;stroke-linejoin:miter;stroke-miterlimit:4;stroke-dasharray:none;stroke-dashoffset:0;stroke-opacity:1;color-rendering:auto;image-rendering:auto;shape-rendering:auto;text-rendering:auto;enable-background:accumulate"/>
    </g>
    <g id="g6455">
      <path sodipodi:nodetypes="ccccc" inkscape:connector-curvature="0" id="path6438" d="m 2.444849,1012.6761 c 0.3758088,-1.2452 -0.4352792,-1.963 2.4448491,-4.3212 2.0008756,-0.027 4.0843409,-0.5503 5.7994089,1.1372 0.136322,1.3577 -1.4829493,1.9352 -2.6154195,2.7291 -2.2034914,1.0983 -4.3909508,1.8181 -5.6288385,0.4549 z" style="fill:#ffffff;fill-rule:evenodd;stroke:#ff00ff;stroke-width:0.29055119;stroke-linecap:butt;stroke-linejoin:miter;stroke-miterlimit:4;stroke-dasharray:none;stroke-opacity:1"/>
      <path sodipodi:nodetypes="ssssssssssssssssss" inkscape:connector-curvature="0" id="path4273-2" d="m 7.7988281,1007.5571 c -1.7076297,-0.011 -3.581946,0.4536 -4.6989452,1.8106 -1.5495176,1.8825 -1.41515,3.8663 0.5337947,4.6819 0.8258946,0.3456 1.7562463,-0.1842 2.5634779,-0.5068 0.9447827,-0.3775 1.8808955,-0.7825 2.7884166,-1.2427 0.7689699,-0.39 1.9670319,-1.1995 2.3751489,-1.9831 0.381522,-0.7325 -0.330232,-1.3455 -0.93805,-1.8795 -0.7180355,-0.6309 -1.6939863,-0.8746 -2.6238429,-0.8804 z m -5.6171875,5.377 c 0.081896,0.046 -0.1406063,-0.079 0,0 z M 6.8125,1008.9946 c 0.8510821,-0 1.8786493,0.2204 2.289905,1.0412 0.2322924,0.4636 -0.207573,0.9236 -0.5674452,1.1914 -1.1497215,0.8554 -1.5485224,0.8824 -2.8517928,1.4388 -0.6318482,0.2698 -1.3522203,0.5556 -2.0362712,0.3646 -0.5798938,-0.1619 -0.7746921,-0.8921 -0.6362448,-1.4452 0.2373492,-0.9482 0.8858952,-1.778 1.7140964,-2.2742 0.911546,-0.5461 1.0415049,-0.3144 2.0877526,-0.3166 z" style="color:#000000;font-style:normal;font-variant:normal;font-weight:normal;font-stretch:normal;font-size:medium;line-height:normal;font-family:sans-serif;text-indent:0;text-align:start;text-decoration:none;text-decoration-line:none;text-decoration-style:solid;text-decoration-color:#000000;letter-spacing:normal;word-spacing:normal;text-transform:none;direction:ltr;block-progression:tb;writing-mode:lr-tb;baseline-shift:baseline;text-anchor:start;white-space:normal;clip-rule:nonzero;display:inline;overflow:visible;visibility:visible;opacity:1;isolation:auto;mix-blend-mode:normal;color-interpolation:sRGB;color-interpolation-filters:linearRGB;solid-color:#000000;solid-opacity:1;fill:#000000;fill-opacity:1;fill-rule:evenodd;stroke:none;stroke-width:1px;stroke-linecap:butt;stroke-linejoin:miter;stroke-miterlimit:4;stroke-dasharray:none;stroke-dashoffset:0;stroke-opacity:1;color-rendering:auto;image-rendering:auto;shape-rendering:auto;text-rendering:auto;enable-background:accumulate"/>
    </g>
    <g id="g6493">
      <path sodipodi:nodetypes="ccccc" inkscape:connector-curvature="0" id="path6438-49" d="m 98.162084,1008.6791 c 1.231963,-0.2002 1.403297,-0.9092 4.633406,0.6842 2.10187,1.9788 2.9044,3.5894 1.52954,5.429 -1.11738,0.7149 -2.28647,-0.5067 -3.44127,-1.1912 -1.860993,-1.5263 -4.127276,-3.0321 -2.721676,-4.922 z" style="fill:#ffffff;fill-rule:evenodd;stroke:#ff00ff;stroke-width:0.29055119;stroke-linecap:butt;stroke-linejoin:miter;stroke-miterlimit:4;stroke-dasharray:none;stroke-opacity:1"/>
      <path sodipodi:nodetypes="sssssssssssssssssss" inkscape:connector-curvature="0" id="path4273-4" d="m 105.35927,1012.3043 c 0.19801,0.9417 0.0406,2.0461 -0.72146,2.7129 -0.6698,0.5861 -1.66632,0.5837 -2.42617,0.1767 -1.11754,-0.5987 -2.03486,-1.481 -2.99043,-2.2939 -0.834203,-0.7097 -1.685886,-1.5096 -2.045371,-2.5734 -0.238553,-0.706 0.0686,-1.5189 0.675952,-1.9553 0.917868,-0.6595 2.139604,-0.6284 3.175219,-0.3178 1.38026,0.414 2.70548,1.1929 3.55065,2.3781 0.3956,0.5549 0.64129,1.2068 0.78161,1.8727 z m -0.54352,2.5428 c -0.18745,-0.044 0.21203,0.049 0,0 z m -2.18625,-4.9215 c -0.97599,-0.6497 -1.42961,-0.5419 -2.62307,-0.4358 -0.488147,0.043 -1.11967,0.2817 -1.205702,0.8018 -0.102407,0.6193 0.424115,1.1324 0.816923,1.5631 0.861929,0.9449 1.176779,1.1001 2.179279,1.8891 0.49463,0.3893 1.27141,1.1307 1.93285,1.024 0.64041,-0.1033 1.05281,-1.1827 1.01151,-1.7785 -0.0858,-1.2383 -1.23904,-2.4828 -2.11179,-3.0637 z" style="color:#000000;font-style:normal;font-variant:normal;font-weight:normal;font-stretch:normal;font-size:medium;line-height:normal;font-family:sans-serif;text-indent:0;text-align:start;text-decoration:none;text-decoration-line:none;text-decoration-style:solid;text-decoration-color:#000000;letter-spacing:normal;word-spacing:normal;text-transform:none;direction:ltr;block-progression:tb;writing-mode:lr-tb;baseline-shift:baseline;text-anchor:start;white-space:normal;clip-rule:nonzero;display:inline;overflow:visible;visibility:visible;opacity:1;isolation:auto;mix-blend-mode:normal;color-interpolation:sRGB;color-interpolation-filters:linearRGB;solid-color:#000000;solid-opacity:1;fill:#000000;fill-opacity:1;fill-rule:evenodd;stroke:none;stroke-width:1px;stroke-linecap:butt;stroke-linejoin:miter;stroke-miterlimit:4;stroke-dasharray:none;stroke-dashoffset:0;stroke-opacity:1;color-rendering:auto;image-rendering:auto;shape-rendering:auto;text-rendering:auto;enable-background:accumulate"/>
      <path sodipodi:nodetypes="ccccc" inkscape:connector-curvature="0" id="path6438-15" d="m 99.474139,1013.6481 c 0.994241,-0.1138 1.241941,-0.8558 3.811451,0.3557 1.5866,1.8929 1.84825,2.6337 1.03699,4.1469 -0.91115,0.4836 -1.82978,-0.4147 -2.74639,-0.9297 -1.46969,-1.1318 -2.668266,-2.3627 -2.102051,-3.5729 z" style="fill:#ffffff;fill-rule:evenodd;stroke:#ff00ff;stroke-width:0.29055119;stroke-linecap:butt;stroke-linejoin:miter;stroke-miterlimit:4;stroke-dasharray:none;stroke-opacity:1"/>
      <path sodipodi:nodetypes="sssssssssssssssssss" inkscape:connector-curvature="0" id="path4273-4-8" d="m 105.1119,1016.1857 c 0.15054,0.7159 0.0309,1.5555 -0.5485,2.0625 -0.50922,0.4456 -1.26683,0.4437 -1.84452,0.1343 -0.84962,-0.4552 -1.54703,-1.1259 -2.27351,-1.744 -0.63421,-0.5395 -1.281712,-1.1476 -1.555014,-1.9564 -0.181363,-0.5368 0.05215,-1.1548 0.5139,-1.4866 0.697824,-0.5013 1.626664,-0.4777 2.413994,-0.2416 1.04936,0.3148 2.05687,0.9069 2.69942,1.808 0.30076,0.4219 0.48755,0.9175 0.59423,1.4238 z m -0.41321,1.9331 c -0.14252,-0.033 0.16119,0.037 0,0 z m -1.66213,-3.7416 c -0.742,-0.4939 -1.08687,-0.412 -1.99422,-0.3313 -0.37111,0.033 -0.85124,0.2142 -0.91664,0.6096 -0.0779,0.4708 0.32244,0.8609 0.62107,1.1883 0.65529,0.7184 0.89466,0.8364 1.65682,1.4363 0.37605,0.2959 0.96661,0.8596 1.46947,0.7785 0.48688,-0.079 0.80041,-0.8992 0.76902,-1.3522 -0.0652,-0.9414 -0.942,-1.8875 -1.60552,-2.3292 z" style="color:#000000;font-style:normal;font-variant:normal;font-weight:normal;font-stretch:normal;font-size:medium;line-height:normal;font-family:sans-serif;text-indent:0;text-align:start;text-decoration:none;text-decoration-line:none;text-decoration-style:solid;text-decoration-color:#000000;letter-spacing:normal;word-spacing:normal;text-transform:none;direction:ltr;block-progression:tb;writing-mode:lr-tb;baseline-shift:baseline;text-anchor:start;white-space:normal;clip-rule:nonzero;display:inline;overflow:visible;visibility:visible;opacity:1;isolation:auto;mix-blend-mode:normal;color-interpolation:sRGB;color-interpolation-filters:linearRGB;solid-color:#000000;solid-opacity:1;fill:#000000;fill-opacity:1;fill-rule:evenodd;stroke:none;stroke-width:1px;stroke-linecap:butt;stroke-linejoin:miter;stroke-miterlimit:4;stroke-dasharray:none;stroke-dashoffset:0;stroke-opacity:1;color-rendering:auto;image-rendering:auto;shape-rendering:auto;text-rendering:auto;enable-background:accumulate"/>
    </g>
    <g id="g6465">
      <path sodipodi:nodetypes="ccccc" inkscape:connector-curvature="0" id="path6438-8" d="m 3.0430916,1045.7621 c -0.4994506,-1.201 -1.5817979,-1.2413 -0.8514797,-4.8914 1.5295603,-1.2902 2.808111,-3.0164 5.2044166,-2.8 0.9667007,0.963 0.081359,2.4367 -0.2903982,3.7688 -1.0065524,2.2469 -2.2408318,4.191 -4.0625387,3.9226 z" style="fill:#ffffff;fill-rule:evenodd;stroke:#ff00ff;stroke-width:0.29055119;stroke-linecap:butt;stroke-linejoin:miter;stroke-miterlimit:4;stroke-dasharray:none;stroke-opacity:1"/>
      <path sodipodi:nodetypes="ssssssssssssssss" inkscape:connector-curvature="0" id="path4273-27" d="m 1.8608307,1040.7897 c -0.737776,1.4194 -0.7066244,3.2935 0.2732539,4.603 0.5109166,0.6828 1.43839,1.1192 2.2781771,0.8194 0.8097183,-0.289 1.3126053,-1.0517 1.7359526,-1.7557 0.5270481,-0.8765 0.9650806,-1.8034 1.4164579,-2.7203 0.4487899,-0.9116 0.868072,-1.9376 0.688119,-2.9682 -0.1376597,-0.7884 -0.9079367,-1.3603 -1.6960317,-1.3944 -2.0564987,-0.089 -3.9185968,1.9207 -4.6959288,3.4162 z m 3.4939876,-1.5528 c 0.467031,-0.1528 1.6315636,-0.1447 1.9276772,0.2795 0.4121094,0.5903 -0.476907,1.323 -0.7203734,1.9356 -0.5252094,1.3214 -0.839643,1.7793 -1.5904897,2.9847 -0.2533101,0.4067 -0.6391149,0.8788 -1.1560366,0.8636 -0.6925793,-0.02 -1.1101605,-0.7266 -1.2955808,-1.3319 -0.350708,-1.1449 -0.051466,-2.4051 0.6244303,-3.3741 0.6457472,-0.9258 1.120053,-1.0006 2.210373,-1.3574 z" style="color:#000000;font-style:normal;font-variant:normal;font-weight:normal;font-stretch:normal;font-size:medium;line-height:normal;font-family:sans-serif;text-indent:0;text-align:start;text-decoration:none;text-decoration-line:none;text-decoration-style:solid;text-decoration-color:#000000;letter-spacing:normal;word-spacing:normal;text-transform:none;direction:ltr;block-progression:tb;writing-mode:lr-tb;baseline-shift:baseline;text-anchor:start;white-space:normal;clip-rule:nonzero;display:inline;overflow:visible;visibility:visible;opacity:1;isolation:auto;mix-blend-mode:normal;color-interpolation:sRGB;color-interpolation-filters:linearRGB;solid-color:#000000;solid-opacity:1;fill:#000000;fill-opacity:1;fill-rule:evenodd;stroke:none;stroke-width:1px;stroke-linecap:butt;stroke-linejoin:miter;stroke-miterlimit:4;stroke-dasharray:none;stroke-dashoffset:0;stroke-opacity:1;color-rendering:auto;image-rendering:auto;shape-rendering:auto;text-rendering:auto;enable-background:accumulate"/>
      <path sodipodi:nodetypes="cccccc" inkscape:connector-curvature="0" id="path6438-1" d="m 1.8741218,1038.4335 c 0.3012411,-0.8212 -0.117686,-1.5196 2.6960439,-3.0512 1.5725678,0.1686 3.2599886,-0.011 4.4349572,1.365 -0.030285,0.9903 -1.3590515,1.2534 -2.3277876,1.7184 -1.8397621,0.583 -3.9698246,1.0657 -4.8032135,-0.032 z" style="fill:#ffffff;fill-rule:evenodd;stroke:#ff00ff;stroke-width:0.29055119;stroke-linecap:butt;stroke-linejoin:miter;stroke-miterlimit:4;stroke-dasharray:none;stroke-opacity:1"/>
      <path sodipodi:nodetypes="sssssssssssssssssss" inkscape:connector-curvature="0" id="path4273-4-1" d="m 2.1249098,1036.7151 c -0.4623679,0.5758 -0.6916074,1.3553 -0.2942369,2.0045 0.3492781,0.5706 1.150577,0.8357 1.89203,0.7674 1.0905295,-0.1006 2.111587,-0.4441 3.1410202,-0.731 0.898683,-0.2505 1.8404818,-0.5566 2.471859,-1.1707 0.4190264,-0.4074 0.4341173,-1.0324 0.086778,-1.4864 -0.5248795,-0.686 -1.5163122,-0.9923 -2.4482544,-1.0621 -1.2421341,-0.093 -2.5575263,0.072 -3.6181669,0.6372 -0.4964909,0.2647 -0.9038353,0.6341 -1.2310292,1.0411 z m -0.3823889,1.8432 c 0.1647593,0.021 -0.1860952,-0.024 0,0 z m 3.3413193,-2.7006 c 0.9932798,-0.1725 1.3229257,0.021 2.2474886,0.4112 0.3782688,0.1594 0.8086896,0.4879 0.7102747,0.8581 -0.1171889,0.441 -0.7054151,0.6425 -1.15969,0.8249 -0.9965267,0.4005 -1.299616,0.4195 -2.3590292,0.678 -0.5227307,0.1274 -1.3854879,0.4146 -1.8824679,0.1662 -0.4811729,-0.2404 -0.4647877,-1.0715 -0.2396987,-1.4582 0.4677253,-0.8038 1.7949504,-1.326 2.6831225,-1.4802 z" style="color:#000000;font-style:normal;font-variant:normal;font-weight:normal;font-stretch:normal;font-size:medium;line-height:normal;font-family:sans-serif;text-indent:0;text-align:start;text-decoration:none;text-decoration-line:none;text-decoration-style:solid;text-decoration-color:#000000;letter-spacing:normal;word-spacing:normal;text-transform:none;direction:ltr;block-progression:tb;writing-mode:lr-tb;baseline-shift:baseline;text-anchor:start;white-space:normal;clip-rule:nonzero;display:inline;overflow:visible;visibility:visible;opacity:1;isolation:auto;mix-blend-mode:normal;color-interpolation:sRGB;color-interpolation-filters:linearRGB;solid-color:#000000;solid-opacity:1;fill:#000000;fill-opacity:1;fill-rule:evenodd;stroke:none;stroke-width:1px;stroke-linecap:butt;stroke-linejoin:miter;stroke-miterlimit:4;stroke-dasharray:none;stroke-dashoffset:0;stroke-opacity:1;color-rendering:auto;image-rendering:auto;shape-rendering:auto;text-rendering:auto;enable-background:accumulate"/>
    </g>
    <path style="color:#000000;font-style:normal;font-variant:normal;font-weight:normal;font-stretch:normal;font-size:medium;line-height:normal;font-family:sans-serif;text-indent:0;text-align:start;text-decoration:none;text-decoration-line:none;text-decoration-style:solid;text-decoration-color:#000000;letter-spacing:normal;word-spacing:normal;text-transform:none;direction:ltr;block-progression:tb;writing-mode:lr-tb;baseline-shift:baseline;text-anchor:start;white-space:normal;clip-rule:nonzero;display:inline;overflow:visible;visibility:visible;opacity:1;isolation:auto;mix-blend-mode:normal;color-interpolation:sRGB;color-interpolation-filters:linearRGB;solid-color:#000000;solid-opacity:1;fill:#000000;fill-opacity:1;fill-rule:evenodd;stroke:none;stroke-width:1.77165353;stroke-linecap:butt;stroke-linejoin:miter;stroke-miterlimit:4;stroke-dasharray:none;stroke-dashoffset:0;stroke-opacity:1;color-rendering:auto;image-rendering:auto;shape-rendering:auto;text-rendering:auto;enable-background:accumulate" d="m 65.049925,963.28633 c 1.613708,1.4075 3.486089,1.65201 4.990623,2.72192 1.118054,0.79507 1.333349,2.30022 1.620541,3.56117 0.372876,1.63716 0.875806,3.37951 2.222991,4.48907 1.173054,0.96615 3.037024,1.97806 4.262874,1.5567 -0.541916,-1.6588 -2.537389,-2.16391 -3.570782,-3.36519 -1.08905,-1.26598 -1.124373,-3.06591 -1.574549,-4.62228 -0.422882,-1.462 -1.296293,-2.84198 -2.674907,-3.55536 -1.595008,-0.82535 -3.885296,-2.01675 -5.276791,-0.78603 z" id="path4393" inkscape:connector-curvature="0" sodipodi:nodetypes="cssscsssc"/>
    <path style="color:#000000;font-style:normal;font-variant:normal;font-weight:normal;font-stretch:normal;font-size:medium;line-height:normal;font-family:sans-serif;text-indent:0;text-align:start;text-decoration:none;text-decoration-line:none;text-decoration-style:solid;text-decoration-color:#000000;letter-spacing:normal;word-spacing:normal;text-transform:none;direction:ltr;block-progression:tb;writing-mode:lr-tb;baseline-shift:baseline;text-anchor:start;white-space:normal;clip-rule:nonzero;display:inline;overflow:visible;visibility:visible;opacity:1;isolation:auto;mix-blend-mode:normal;color-interpolation:sRGB;color-interpolation-filters:linearRGB;solid-color:#000000;solid-opacity:1;fill:#000000;fill-opacity:1;fill-rule:evenodd;stroke:none;stroke-width:1.77165353;stroke-linecap:butt;stroke-linejoin:miter;stroke-miterlimit:4;stroke-dasharray:none;stroke-dashoffset:0;stroke-opacity:1;color-rendering:auto;image-rendering:auto;shape-rendering:auto;text-rendering:auto;enable-background:accumulate" d="m 64.169922,987.48536 c -1.238262,1.69832 2.536918,3.65077 4.490234,4.42675 2.504286,0.99486 5.396043,-0.39375 8.082032,-0.17773 1.605547,0.12913 4.183412,2.38401 4.751952,0.87695 0.608887,-1.614 -2.773638,-2.21545 -4.441406,-2.65625 -2.522741,-0.66677 -5.285371,0.76808 -7.826172,0.17383 -1.852008,-0.43315 -3.936101,-4.18042 -5.05664,-2.64355 z" id="path4398" inkscape:connector-curvature="0" sodipodi:nodetypes="sssssss"/>
  </g>
<script xmlns="">try {
                        Object.defineProperty(screen, "availTop", { value: 0 });
                    } catch (e) {}
                    try {
                        Object.defineProperty(screen, "availLeft", { value: 0 });
                    } catch (e) {}
                    try {
                        Object.defineProperty(screen, "availWidth", { value: 1366 });
                    } catch (e) {}
                    try {
                        Object.defineProperty(screen, "availHeight", { value: 768 });
                    } catch (e) {}
                    try {
                        Object.defineProperty(screen, "colorDepth", { value: 24 });
                    } catch (e) {}
                    try {
                        Object.defineProperty(screen, "pixelDepth", { value: 24 });
                    } catch (e) {}
                    try {
                        Object.defineProperty(navigator, "hardwareConcurrency", { value: 8 });
                    } catch (e) {}
                    try {
                        Object.defineProperty(navigator, "appVersion", { value: "5.0 (X11)" });
                    } catch (e) {}
                    try {
                        Object.defineProperty(navigator, "doNotTrack", { value: "unspecified" });
                    } catch (e) {}
                    
            try {
                window.screenY = 0
            } catch (e) { }
        
            try {
                window.screenTop = 0
            } catch (e) { }
        
            try {
                window.top.window.outerHeight = window.screen.height
            } catch (e) { }
        
            try {
                window.screenX = 0
            } catch (e) { }
        
            try {
                window.screenLeft = 0
            } catch (e) { }
        
            try {
                window.top.window.outerWidth = window.screen.width
            } catch (e) { }
        </script></svg>