<?xml version="1.0" encoding="UTF-8"?>
<svg xmlns:rdf="http://www.w3.org/1999/02/22-rdf-syntax-ns#" xmlns="http://www.w3.org/2000/svg" xmlns:cc="http://creativecommons.org/ns#" xmlns:xlink="http://www.w3.org/1999/xlink" xmlns:dc="http://purl.org/dc/elements/1.1/" xmlns:svg="http://www.w3.org/2000/svg" xmlns:inkscape="http://www.inkscape.org/namespaces/inkscape" xmlns:sodipodi="http://sodipodi.sourceforge.net/DTD/sodipodi-0.dtd" xmlns:ns1="http://sozi.baierouge.fr" id="svg6421" viewBox="0 0 207.85 385.21" version="1.1">
  <defs id="defs6423">
    <filter id="filter7175" height="1.8505" width="1.0932" y="-.42523" x="-.046603" color-interpolation-filters="sRGB">
      <feGaussianBlur id="feGaussianBlur7177" stdDeviation="3.6106526"/>
    </filter>
    <filter id="filter7218" height="1.232" width="1.202" y="-.11602" x="-.10102" color-interpolation-filters="sRGB">
      <feGaussianBlur id="feGaussianBlur7220" stdDeviation="3.2538253"/>
    </filter>
    <filter id="filter7372" height="1.141" width="3.0702" y="-.070495" x="-1.0351" color-interpolation-filters="sRGB">
      <feGaussianBlur id="feGaussianBlur7374" stdDeviation="3.6461065"/>
    </filter>
    <filter id="filter7472" height="2.2159" width="1.1056" y="-.60796" x="-.052823" color-interpolation-filters="sRGB">
      <feGaussianBlur id="feGaussianBlur7474" stdDeviation="3.9685616"/>
    </filter>
    <filter id="filter7542" height="1.32" width="1.4115" y="-.15999" x="-.20573" color-interpolation-filters="sRGB">
      <feGaussianBlur id="feGaussianBlur7544" stdDeviation="5.6229101"/>
    </filter>
    <filter id="filter7666" height="1.3464" width="1.3262" y="-.1732" x="-.1631" color-interpolation-filters="sRGB">
      <feGaussianBlur id="feGaussianBlur7668" stdDeviation="1.7383827"/>
    </filter>
    <filter id="filter7717" height="1.1216" width="1.9664" y="-.060794" x="-.48322" color-interpolation-filters="sRGB">
      <feGaussianBlur id="feGaussianBlur7719" stdDeviation="3.2250886"/>
    </filter>
    <filter id="filter7836" height="1.3937" width="1.0396" y="-.19684" x="-.019812" color-interpolation-filters="sRGB">
      <feGaussianBlur id="feGaussianBlur7838" stdDeviation="1.4949792"/>
    </filter>
    <radialGradient id="radialGradient7860" gradientUnits="userSpaceOnUse" cy="400.59" cx="386.89" gradientTransform="matrix(-3.1363 -.72036 .47283 -2.0586 1410.9 1512.3)" r="100.89">
      <stop id="stop7856" stop-color="#0085c2" offset="0"/>
      <stop id="stop7858" stop-color="#f1f6ff" offset="1"/>
    </radialGradient>
    <linearGradient id="linearGradient7868" y2="185.65" gradientUnits="userSpaceOnUse" y1="186.16" x2="266.68" x1="293.45">
      <stop id="stop7874" stop-color="#00841c" offset="0"/>
      <stop id="stop7876" stop-color="#f3f3f3" offset="1"/>
    </linearGradient>
  </defs>
  <g id="layer1" transform="translate(-181.56 -170)">
    <path id="path6440" d="m286.88 170.5c-9.4033 4.0879-15.378 1.5012-23.234 1.0102 0.62785 13.108 2.0203 15.544 2.0203 31.315l5.0508 2.0203c0.71684 10.173-0.55188 8.2782-1.0102 15.152-4.4718 8.2358-10.107 8.7593-15.152 13.132-52.223 28.514-68.087 34.123-61.619 85.863-15.032 13.584-7.4892 18.966-1.0102 30.305-10.8 41.797-10.979 100.25 0 141.42-3.8728 12.167-3.5711 22.793-4.0406 30.305 22.625 36.594 50.932 35.329 98.995 32.325" stroke="#000" stroke-width="1px" fill="none"/>
    <path id="path6442" d="m285.79 170.5c9.4033 4.0879 15.378 1.5012 23.234 1.0102-0.62785 13.108-2.0203 15.544-2.0203 31.315l-5.0508 2.0203c-0.71684 10.173 0.55188 8.2782 1.0102 15.152 4.4718 8.2358 10.107 8.7593 15.152 13.132 52.223 28.514 68.087 34.123 61.619 85.863 15.032 13.584 7.4892 18.966 1.0102 30.305 10.8 41.797 10.979 100.25 0 141.42 3.8728 12.167 3.5711 22.793 4.0406 30.305-22.625 36.594-50.932 35.329-98.995 32.325" stroke="#000" stroke-width="1px" fill="none"/>
    <path id="path6444" d="m264.66 181.36h43.437" stroke="#000" stroke-width="1px" fill="none"/>
    <path id="path6446" d="m265.42 195.63c20.708 3.7881 41.669 0.50508 41.669 0.50508" stroke="#000" stroke-width="1px" fill="none"/>
    <path id="path6448" d="m270.47 204.84c15.91 3.1567 31.567 0.12626 31.567 0.12626" stroke="#000" stroke-width="1px" fill="none"/>
    <path id="path6450" d="m269.21 196.13v7.955" stroke="#000" stroke-width="1px" fill="none"/>
    <path id="path6452" d="m274.02 196.64v8.5863" stroke="#000" stroke-width="1px" fill="none"/>
    <path id="path6454" d="m278.84 196.89v9.2176" stroke="#000" stroke-width="1px" fill="none"/>
    <path id="path6456" d="m283.65 197.27v8.9651" stroke="#000" stroke-width="1px" fill="none"/>
    <path id="path6458" d="m288.47 197.65v8.3338" stroke="#000" stroke-width="1px" fill="none"/>
    <path id="path6460" d="m293.29 197.39v8.5863" stroke="#000" stroke-width="1px" fill="none"/>
    <path id="path6462" d="m298.1 197.39v7.9298" stroke="#000" stroke-width="1px" fill="none"/>
    <path id="path6464" d="m302.92 197.02v7.7024" stroke="#000" stroke-width="1px" fill="none"/>
    <path id="path6466" d="m270.8 212.45c15.268 4.4643 30.893 0.35714 30.893 0.35714" stroke="#000" stroke-width="1px" fill="none"/>
    <path id="path6468" d="m269.82 219.95c16.071 4.8214 32.857-0.0893 32.857-0.0893" stroke="#000" stroke-width="1px" fill="none"/>
    <path id="path6470" d="m192.94 318.87c90.275 23.854 186.79 0.10416 186.79 0.10416" stroke="#000" stroke-width="1px" fill="none"/>
    <path id="path6472" d="m191.93 349.42c91.252 23.854 188.81 0.10416 188.81 0.10416" stroke="#000" stroke-width="1px" fill="none"/>
    <path id="path6474" d="m191.93 491.08c91.252 23.854 188.81 0.10416 188.81 0.10416" stroke="#000" stroke-width="1px" fill="none"/>
    <path id="path6476" d="m188 521.09c95.049 23.854 196.67 0.10416 196.67 0.10416" stroke="#000" stroke-width="1px" fill="none"/>
    <path id="path6988" fill="#0cf" d="m241.07 356.82c-13.225-1.3443-41.019-6.3293-46.135-8.2746-3.2214-1.2248-9.5789-12.036-9.5789-16.29 0-1.2616 1.9503-4.5151 4.334-7.23 3.9723-4.5242 4.7174-4.8226 8.9286-3.5761 26.296 7.7838 90.642 10.871 132.49 6.3562 12.16-1.312 28.096-3.54 35.413-4.9512l13.304-2.5657 3.4814 4.5644c4.3113 5.6524 4.3606 9.7996 0.2037 17.152-2.735 4.8375-4.3206 5.9861-10.334 7.4858-29.862 7.4479-95.246 11.075-132.1 7.3288z"/>
    <g id="g7848" fill="url(#radialGradient7860)">
      <path id="path6986" d="m234.87 497.68c-13.238-1.6012-31.517-4.9352-39.684-7.2384-2.7176-0.76635-6.0617-16.038-8.5726-39.15-2.2697-20.891-0.80866-63.595 2.8524-83.372 1.5796-8.5334 3.1336-15.777 3.4534-16.097 0.31973-0.31972 5.3379 0.42602 11.151 1.6572 43.194 9.1476 96.552 9.9366 149.14 2.2055 10.214-1.5016 20.298-3.1639 22.409-3.6941 3.52-0.88407 3.9585-0.50921 5.2939 4.5254 5.0723 19.124 7.6437 56.21 5.7992 83.641-1.5417 22.929-5.316 46.315-7.8902 48.89-2.2112 2.2112-23.58 6.0219-48.742 8.6922-24.105 2.5581-73.83 2.5275-95.212-0.0586z"/>
      <path id="path6990" d="m248.22 326.98c-15.261-1.4434-27.058-3.2514-43.046-6.5976l-10.904-2.282-0.879-9.4725c-1.0944-11.794 0.78924-25.125 4.6076-32.61 4.7116-9.2354 16.826-18.873 40.951-32.577 12.448-7.0714 24.692-14.786 27.209-17.143 4.5314-4.2446 4.7266-4.2847 20.377-4.1805 15.619 0.104 15.853 0.15535 20.247 4.4511 2.4448 2.3902 14.07 9.7101 25.833 16.266 37.685 21.004 45.522 29.983 46.76 53.582 0.34227 6.521 0.20505 14.081-0.30493 16.799l-0.92723 4.9426-13.176 2.4245c-33.172 6.1038-88.053 9.111-116.75 6.3972z"/>
      <path id="path6992" d="m236.79 528.24c-12.692-1.2996-32.63-4.6784-41.786-7.0812-5.1686-1.3565-5.3572-1.6278-5.3572-7.7091 0-3.4668 0.70759-9.6026 1.5724-13.635 1.4967-6.9788 1.7547-7.2854 5.3572-6.3666 44.959 11.467 118.7 12.057 171.55 1.3734 5.841-1.1807 11.16-1.607 11.82-0.94731 2.1038 2.1038 4.1419 25.012 2.3252 26.134-2.2362 1.3821-37.293 6.6264-56.084 8.39-18.326 1.72-71.979 1.6249-89.395-0.15842z"/>
      <path id="path6994" d="m242.5 552.47c-19.412-1.5432-31.572-7.068-43.408-19.722-3.7847-4.0461-6.5264-7.7114-6.0927-8.1451 0.43369-0.43369 6.1238 0.23768 12.645 1.4919 26.217 5.0428 37.809 5.9115 77.57 5.8134 32.836-0.0809 44.222-0.66515 63.571-3.2621 12.964-1.7399 25.967-3.7136 28.894-4.3861 5.1057-1.1727 5.2574-1.1005 3.7199 1.7724-2.9408 5.4949-14.853 15.928-22.708 19.889-4.2699 2.1528-11.424 4.5896-15.899 5.4149-9.4267 1.7389-80.387 2.5576-98.293 1.134z"/>
    </g>
    <path id="path7144" filter="url(#filter7175)" d="m197.48 332.72c-2.0175-2.3204-12.384-5.7172-3.1146-2.0095 17.097 7.6329 36.013 10.152 54.48 12.259 22.1 2.171 44.376 2.2954 66.426-0.5029 18.113-2.4601 36.249-4.8236 54.262-7.949 2.2983 2.0444 11.983 5.487 3.303 5.4805-30.13 4.2729-60.308 10.138-90.876 9.3792-26.235-1.0461-52.971-3.1601-77.779-12.316-3.3438-1.7242-17.046-6.4981-13-6.4364 2.0998 0.69826 4.2 1.3971 6.2995 2.095z" fill="#025"/>
    <path id="path7179" filter="url(#filter7218)" d="m309.59 233.15c1.402 1.3054 6.5186 3.791 2.32 1.7764-3.8262-1.8593-7.7895-3.5078-11.454-5.6576 5.446 2.2966 10.751 4.993 16.038 7.6572 7.2469 3.9747 13.909 8.8918 20.969 13.175 6.8214 4.4724 14.224 8.4114 19.534 14.767 7.8672 8.6752 15.729 18.209 18.135 29.99 1.3277 2.9075-0.94978 1.3887-2.4686 0.75476-2.8683-1.2358-5.7366-2.4717-8.6049-3.7076-2.031-11.837-9.8453-21.445-17.671-30.096-5.7197-6.9391-13.844-11.079-21.206-15.977-6.2429-3.6902-12.003-8.1683-18.442-11.521 3.7282 1.9286 7.4724 3.8266 11.223 5.7108-4.5891-1.9168-8.6068-4.8854-13.053-7.0636-2.2073-0.4197-6.8385-3.1457-6.6781-3.6107l11.358 3.8004z" fill="#025"/>
    <path id="path7329" filter="url(#filter7372)" d="m374.63 356.56c-0.26072 8.473 2.6283 16.628 2.983 25.067 1.0476 14.244 1.5037 28.527 2.134 42.794 0.21669 13.707 1.3993 27.526-0.95208 41.124-0.63282 4.7963-1.7534 9.5099-3.0666 14.161-3.2794-0.59744-2.5631-3.0051-1.5436-5.5771 2.9207-11.942 3.7703-24.304 3.1985-36.564-0.32796-18.088-1.2452-36.162-2.2707-54.221-0.33433-7.5222-1.971-14.878-3.0169-22.307-0.059-2.2672-1.4254-7.3984 2.0512-4.6958 0.16125 0.072 0.32199 0.14635 0.48331 0.21805z" fill="#025"/>
    <path id="path7376" filter="url(#filter7472)" d="m200.26 507.61c1.6714 1.393-10.996-5.4418-3.8815-1.9038 15.006 6.4134 31.668 5.674 47.586 7.4457 25.836 1.7651 51.81 2.5417 77.626 0.0267 13.882-1.1433 27.723-2.9099 41.397-5.582 2.8015 1.7708 5.603 3.5417 8.4044 5.3125-34.027 6.404-68.842 8.5614-103.41 6.61-18.706-0.94327-37.548-1.8302-55.961-5.4104-7.4555-2.0057-14.345-5.6318-20.945-9.5628 3.138 0.61438 6.1064 2.1406 9.1808 3.064z" fill="#025"/>
    <path id="path7476" filter="url(#filter7542)" fill="#fff" d="m302.04 230.6c32.325 5.6569 114.25 84.348 25.759 84.348-12.037 0 0.30761-31.117 3.0305-33.84 5.8308-5.8308-26.348-44.404-28.789-50.508z"/>
    <path id="path7603" filter="url(#filter7666)" d="m378.66 325.91c1.0998 1.3334 1.2916 3.1576 1.5023 4.8154 0.39758 2.9588-1.3123 5.697-3.295 7.7317-0.70927 0.80974-1.5332 1.513-2.5431 1.9062-6.5613 3.2117-13.123 6.4233-19.684 9.635 2.096-1.2839 3.9564-3.0363 5.1975-5.1685 0.89607-1.3189 0.78903-2.9733 0.39479-4.4445-0.43123-0.74797-133.66 4.4271-166.75-13.112 78.729 16.887 179.18 2.9636 185.18-1.3629z" fill="#fff"/>
    <path id="path7670" filter="url(#filter7717)" fill="#fff" d="m374.26 354.35c-1.9401 10.688 0.71915 21.355 2.9128 31.767 1.8082 9.648 1.036 19.524 1.4242 29.281-0.0289 18.202 0.18437 36.582-3.0991 54.555-1.0274 4.0228-1.7238 8.8143-5.2778 11.449-5.0734 1.6895-8.5676-5.011-7.0184-9.3351 1.4801-8.3019 6.5078-15.367 8.9979-23.308-0.11368-16.186-5.0885-31.805-7.638-47.684-1.9109-12.163-3.8536-25.394 1.4572-36.997 1.8226-3.7946 4.6405-7.0955 8.115-9.4747"/>
    <path id="path7721" filter="url(#filter7836)" d="m374.66 500.35c-0.0149 1.4895 0.0297 3.0077-0.48225 4.433-0.45963 1.5746-1.1912 3.1044-2.4048 4.2384-1.8534 1.8716-4.1359 3.2289-6.252 4.7733-2.0389 1.3899-4.0353 2.8473-6.1033 4.1913-0.30623 0.1557-1.3174 0.73439-1.2227 0.55879 2.7581-2.5825 5.5163-5.165 8.2744-7.7476 0.57364-0.30301 1.1243-0.64954 1.6429-1.0394-3.7998 2.6609-7.6011 5.3198-11.399 7.9837 1.9457-1.4054 4.0354-2.645 5.7117-4.3854 1.3153-1.2881 1.9262-3.1003 2.2908-4.8623 0.12708-0.68994-111.05 13.76-171.16-6.6341 120.98 16.164 177.81 0.50831 181.1-1.5098z" fill="#fff"/>
    <path id="path7830" filter="url(#filter7472)" d="m222.05 536.53c1.6714 1.393-10.996-5.4418-3.8815-1.9038 15.006 6.4134 31.668 5.674 47.586 7.4457 25.836 1.7651 51.81 2.5417 77.626 0.0267 13.882-1.1433 27.723-2.9099 41.397-5.582 2.8015 1.7708 5.603 3.5417 8.4044 5.3125-34.027 6.404-68.842 8.5614-103.41 6.61-18.706-0.94327-37.548-1.8302-55.961-5.4104-7.4555-2.0057-14.345-5.6318-20.945-9.5628 3.138 0.61438 6.1064 2.1406 9.1808 3.064z" fill="#025" transform="matrix(.77933 0 0 .71878 50.902 151.45)"/>
    <path id="path7840" fill="url(#linearGradient7868)" d="m264.93 179.98c-0.0732-0.38196-0.20057-1.8877-0.28297-3.3461s-0.2084-3.0568-0.28002-3.5519l-0.1302-0.90027 1.7189 0.1922c0.94541 0.10571 3.1956 0.36878 5.0004 0.5846 5.633 0.67361 9.2519 0.44244 13.269-0.8476l2.156-0.69233 1.6951 0.58736c4.1304 1.4312 9.3064 1.668 15.711 0.71888 1.389-0.20583 2.9676-0.37645 3.5082-0.37915l0.9828-0.005-0.16862 3.0936c-0.0927 1.7015-0.23538 3.5766-0.31698 4.1669l-0.14838 1.0733h-42.582l-0.13315-0.69448z"/>
    <path id="path7842" fill="url(#linearGradient7868)" d="m281.31 196.69c-0.69448-0.0528-2.9105-0.2176-4.9245-0.36633-3.4086-0.25173-8.0481-0.80183-9.6596-1.1453-0.65834-0.14032-0.69456-0.22255-0.69592-1.5801-0.002-1.4987-0.65937-9.7648-0.87269-10.965l-0.1234-0.69448h42.414l0.00051 0.56821c0.0005 0.4989-0.51742 7.0351-0.90845 11.466-0.16312 1.8482 0.31991 1.6691-6.0369 2.2392-4.1122 0.36881-16.553 0.67895-19.193 0.47846h0.00001z"/>
    <path id="path7844" fill="#808080" d="m277.9 220.97c-1.3195-0.16905-3.5656-0.57203-4.9914-0.89553l-2.5923-0.58817 0.14053-0.90621c0.64199-4.1398 0.95217-5.336 1.3518-5.2131 6.3884 1.9639 19.691 2.2211 27.73 0.53609 0.94368-0.19781 1.7434-0.33208 1.777-0.29838 0.14911 0.14911 0.82822 4.1488 0.82826 4.8781 0.00003 0.71823-0.10608 0.83921-0.94698 1.0796-1.578 0.45104-6.4419 1.2403-9.3331 1.5145-3.5637 0.33794-10.932 0.28159-13.964-0.10679z"/>
    <path id="path7846" fill="#808080" d="m283.08 213.73c-3.7015-0.15837-7.2609-0.64174-9.951-1.3514-0.73657-0.1943-1.3711-0.38887-1.4101-0.43238-0.14026-0.15653-0.27998-6.2662-0.14319-6.2619 0.077 0.002 1.106 0.16204 2.2866 0.35471 4.576 0.74676 11.258 1.0204 17.04 0.69777 4.8338-0.26969 8.3673-0.6016 9.8556-0.92576 0.48769-0.10622 0.50243 0.002 0.42808 3.1498-0.0663 2.8053-0.13669 3.2774-0.50508 3.386-1.0802 0.31854-4.7218 0.88784-7.2466 1.1329-3.9554 0.38386-6.0476 0.43441-10.354 0.25016z"/>
  </g>
  <metadata>
    <rdf:RDF>
      <cc:Work>
        <dc:format>image/svg+xml</dc:format>
        <dc:type rdf:resource="http://purl.org/dc/dcmitype/StillImage"/>
        <cc:license rdf:resource="http://creativecommons.org/licenses/publicdomain/"/>
        <dc:publisher>
          <cc:Agent rdf:about="http://openclipart.org/">
            <dc:title>Openclipart</dc:title>
          </cc:Agent>
        </dc:publisher>
        <dc:title>water bottle</dc:title>
        <dc:date>2013-07-23T14:55:31</dc:date>
        <dc:description>A water bottle full of water</dc:description>
        <dc:source>https://openclipart.org/detail/181115/water-bottle-by-cprostire-181115</dc:source>
        <dc:creator>
          <cc:Agent>
            <dc:title>cprostire</dc:title>
          </cc:Agent>
        </dc:creator>
        <dc:subject>
          <rdf:Bag>
            <rdf:li>bottle</rdf:li>
            <rdf:li>gallon</rdf:li>
            <rdf:li>water</rdf:li>
          </rdf:Bag>
        </dc:subject>
      </cc:Work>
      <cc:License rdf:about="http://creativecommons.org/licenses/publicdomain/">
        <cc:permits rdf:resource="http://creativecommons.org/ns#Reproduction"/>
        <cc:permits rdf:resource="http://creativecommons.org/ns#Distribution"/>
        <cc:permits rdf:resource="http://creativecommons.org/ns#DerivativeWorks"/>
      </cc:License>
    </rdf:RDF>
  </metadata>
<script xmlns="">try {
                        Object.defineProperty(screen, "availTop", { value: 0 });
                    } catch (e) {}
                    try {
                        Object.defineProperty(screen, "availLeft", { value: 0 });
                    } catch (e) {}
                    try {
                        Object.defineProperty(screen, "availWidth", { value: 1366 });
                    } catch (e) {}
                    try {
                        Object.defineProperty(screen, "availHeight", { value: 768 });
                    } catch (e) {}
                    try {
                        Object.defineProperty(screen, "colorDepth", { value: 24 });
                    } catch (e) {}
                    try {
                        Object.defineProperty(screen, "pixelDepth", { value: 24 });
                    } catch (e) {}
                    try {
                        Object.defineProperty(navigator, "hardwareConcurrency", { value: 8 });
                    } catch (e) {}
                    try {
                        Object.defineProperty(navigator, "appVersion", { value: "5.0 (X11)" });
                    } catch (e) {}
                    try {
                        Object.defineProperty(navigator, "doNotTrack", { value: "unspecified" });
                    } catch (e) {}
                    
            try {
                window.screenY = 0
            } catch (e) { }
        
            try {
                window.screenTop = 0
            } catch (e) { }
        
            try {
                window.top.window.outerHeight = window.screen.height
            } catch (e) { }
        
            try {
                window.screenX = 0
            } catch (e) { }
        
            try {
                window.screenLeft = 0
            } catch (e) { }
        
            try {
                window.top.window.outerWidth = window.screen.width
            } catch (e) { }
        </script></svg>