<svg xmlns="http://www.w3.org/2000/svg" xmlns:xlink="http://www.w3.org/1999/xlink" version="1.1" x="0px" y="0px" viewBox="-346 256 100 125" enable-background="new -346 256 100 100" xml:space="preserve"><g><path d="M-325.314,321.886c2.453,0,3.958,1.846,4.022,1.926c0.344,0.449,0.933,0.666,1.493,0.542   c0.555-0.126,0.993-0.568,1.111-1.129c0.024-0.119,2.709-12.49,8.188-19.181c0.406-0.497,0.818-0.972,1.231-1.435   c-0.539-0.923-0.99-1.892-1.345-2.882c-0.77,0.817-1.478,1.622-2.159,2.455c-4.358,5.326-6.98,13.467-8.154,17.845l-0.058,0.219   l-0.192-0.116c-1.292-0.782-2.685-1.18-4.139-1.18c-3.56,0-5.343,1.67-5.536,1.861c-0.572,0.572-0.573,1.502-0.001,2.076   c0.556,0.556,1.521,0.554,2.076,0.002C-328.773,322.888-327.664,321.886-325.314,321.886z"/><path d="M-314.065,338.77c0.016-0.196,1.783-19.574,10.281-30.367c-0.814-0.537-1.588-1.146-2.305-1.814   c-5.644,7.166-8.489,17.518-9.884,24.965l-0.09,0.476l-0.226-0.431c-1.954-3.721-4.634-5.606-7.963-5.606   c-2.611,0.027-4.85,1.355-6.288,2.462l-0.153,0.12l-0.096-0.171c-0.941-1.651-3.073-4.425-6.783-4.425   c-0.411,0-0.834,0.034-1.261,0.104c-6.057,0.969-7.096,5.858-7.138,6.066c-0.158,0.794,0.358,1.569,1.151,1.726   c0.793,0.168,1.571-0.367,1.727-1.151c0.027-0.129,0.717-3.102,4.722-3.741c4.015-0.673,5.57,3.978,5.722,4.475   c0.149,0.517,0.563,0.908,1.084,1.026c0.517,0.118,1.066-0.06,1.421-0.452c0.028-0.029,2.824-3.069,5.817-3.104   c5.805,0,7.285,9.515,7.346,9.919c0.104,0.72,0.728,1.26,1.452,1.26l0.046,0.168l-0.005-0.168   C-314.743,340.086-314.131,339.51-314.065,338.77z"/><path d="M-306.333,340.159c0.04,0.645,0.529,1.18,1.167,1.276c0.667,0.123,1.269-0.274,1.495-0.87   c0.021-0.056,2.247-5.781,6.425-7.869c1.656-0.828,3.464-1.248,5.376-1.248c1.639,0,2.712,0.318,2.72,0.32   c0.127,0.037,0.262,0.059,0.397,0.059h0.001c0.608,0,1.141-0.391,1.319-0.971c0.223-0.727-0.188-1.498-0.912-1.724   c-0.15-0.044-1.522-0.442-3.537-0.442c-2.329,0-4.55,0.519-6.596,1.54c-1.747,0.874-3.373,2.289-4.836,4.212l-0.318,0.415   l0.014-0.524c0.156-5.61,1.006-16.104,4.934-23.658c-0.911-0.241-1.796-0.552-2.633-0.925   C-307.379,321.781-306.379,339.411-306.333,340.159z"/></g><g><path d="M-324.797,305.898c0.957,0,1.741-0.775,1.741-1.741c0-0.957-0.784-1.735-1.741-1.735c-0.962,0-1.741,0.779-1.741,1.735   C-326.538,305.123-325.759,305.898-324.797,305.898"/><path d="M-335.842,313.055c0.961,0,1.741-0.777,1.741-1.739c0-0.961-0.779-1.737-1.741-1.737c-0.962,0-1.74,0.776-1.74,1.737   C-337.583,312.277-336.804,313.055-335.842,313.055"/><path d="M-330.737,317.302c0.961,0,1.74-0.775,1.74-1.735c0-0.962-0.779-1.737-1.74-1.737c-0.958,0-1.737,0.775-1.737,1.737   C-332.475,316.526-331.695,317.302-330.737,317.302"/><path d="M-335.64,320.214c0.961,0,1.741-0.778,1.741-1.742c0-0.957-0.78-1.733-1.741-1.733c-0.958,0-1.736,0.776-1.736,1.733   C-337.376,319.436-336.599,320.214-335.64,320.214"/><path d="M-344.227,312.442c0.959,0,1.74-0.777,1.74-1.743c0-0.957-0.781-1.732-1.74-1.732c-0.96,0-1.74,0.775-1.74,1.732   C-345.967,311.665-345.187,312.442-344.227,312.442"/><path d="M-324.971,336.132c0.954,0,1.738-0.773,1.738-1.74c0-0.957-0.784-1.733-1.738-1.733c-0.96,0-1.742,0.776-1.742,1.733   C-326.712,335.358-325.931,336.132-324.971,336.132"/><path d="M-325.002,314.896c0.957,0,1.737-0.775,1.737-1.742c0-0.957-0.78-1.732-1.737-1.732c-0.958,0-1.743,0.775-1.743,1.732   C-326.745,314.121-325.959,314.896-325.002,314.896"/><path d="M-298.002,326.203c0.957,0,1.737-0.775,1.737-1.742c0-0.955-0.78-1.733-1.737-1.733c-0.957,0-1.741,0.778-1.741,1.733   C-299.744,325.428-298.959,326.203-298.002,326.203"/><path d="M-292.152,338.184c0.957,0,1.736-0.775,1.736-1.742c0-0.956-0.779-1.733-1.736-1.733c-0.958,0-1.742,0.777-1.742,1.733   C-293.895,337.408-293.11,338.184-292.152,338.184"/><path d="M-291.59,326.203c0.958,0,1.737-0.775,1.737-1.742c0-0.955-0.779-1.733-1.737-1.733s-1.742,0.778-1.742,1.733   C-293.332,325.428-292.548,326.203-291.59,326.203"/><path d="M-294.289,320.804c0.957,0,1.737-0.778,1.737-1.742c0-0.958-0.78-1.733-1.737-1.733s-1.743,0.775-1.743,1.733   C-296.032,320.025-295.246,320.804-294.289,320.804"/><path d="M-285.178,322.659c0.957,0,1.738-0.775,1.738-1.741c0-0.958-0.781-1.733-1.738-1.733s-1.741,0.775-1.741,1.733   C-286.919,321.884-286.135,322.659-285.178,322.659"/><path d="M-329.094,311.012c0.962,0,1.741-0.778,1.741-1.743c0-0.958-0.779-1.733-1.741-1.733c-0.96,0-1.741,0.775-1.741,1.733   C-330.835,310.233-330.055,311.012-329.094,311.012"/><path d="M-338.816,336.275c1.321-0.598,2.462-0.682,3.505-0.251c2.093,0.857,3.097,3.459,3.106,3.485   c0.274,0.731,1.145,1.14,1.89,0.857c0.367-0.138,0.659-0.41,0.82-0.768c0.163-0.356,0.176-0.756,0.039-1.121   c-0.058-0.155-1.473-3.816-4.714-5.162c-0.8-0.33-1.642-0.498-2.5-0.498c-1.078,0-2.207,0.264-3.356,0.784   c-2.823,1.279-4.115,4.749-4.253,5.141c-0.271,0.763,0.132,1.603,0.896,1.872c0.752,0.271,1.61-0.151,1.873-0.896   C-341.271,339.033-340.255,336.928-338.816,336.275z"/><g><path d="M-293.508,299.617c-3.062,1.695-6.48,4.367-9.9,8.577c-0.043,0.057-0.085,0.114-0.128,0.168    c0.683,0.439,1.397,0.827,2.141,1.166c0.203-0.398,0.414-0.791,0.635-1.176C-298.812,304.93-296.382,302.021-293.508,299.617z"/><path d="M-294.236,276.627c-9.521,0-17.238,7.717-17.238,17.237c0,1.948,0.338,3.814,0.935,5.561    c9.692-10.156,20.78-12.457,25.341-12.965c0.884-0.111,1.709,0.542,1.809,1.443c0.101,0.897-0.547,1.707-1.445,1.807    c-4.329,0.485-15.06,2.734-24.218,12.931c0.812,1.365,1.8,2.609,2.944,3.699c0.054-0.069,0.104-0.143,0.16-0.209    c11.577-14.254,23.6-12.642,24.105-12.57c0.894,0.134,1.542,0.972,1.38,1.861c-0.144,0.771-0.691,0.982-1.842,1.377    c-6.988,2.474-12.162,6.748-15.769,13.081c-0.126,0.222-0.241,0.454-0.361,0.681c1.348,0.338,2.748,0.537,4.199,0.537    c9.518,0,17.236-7.716,17.236-17.236C-277,284.344-284.719,276.627-294.236,276.627z"/></g><path d="M-246.098,293.88c0-9.199-7.239-16.728-16.327-17.167l-21.302,0.027c5.934,3.651,9.596,10.157,9.596,17.124   c0,7.014-3.695,13.539-9.683,17.179l21.389-0.043C-253.337,310.561-246.098,303.076-246.098,293.88z"/></g><text x="-346" y="371" fill="#000000" font-size="5px" font-weight="bold" font-family="'Helvetica Neue', Helvetica, Arial-Unicode, Arial, Sans-serif">Created by Luis Prado</text><text x="-346" y="376" fill="#000000" font-size="5px" font-weight="bold" font-family="'Helvetica Neue', Helvetica, Arial-Unicode, Arial, Sans-serif">from the Noun Project</text></svg>